<svg width="20" height="9" viewBox="0 0 20 9" fill="none" xmlns="http://www.w3.org/2000/svg">
<path d="M9.59998 0C4.94609 0 0 1.55021 0 4.42301C0 7.29581 4.9462 8.84613 9.59998 8.84613C14.2538 8.84613 19.2 7.29581 19.2 4.42301C19.2 1.55021 14.2538 0 9.59998 0Z" fill="#4A5B71"/>
<path d="M9.59998 6.80385C5.53177 6.80385 1.24039 5.61924 0.22469 3.40186C0.0785389 3.72096 0 4.06152 0 4.42309C0 7.296 4.9462 8.84622 9.59998 8.84622C14.2538 8.84622 19.2 7.2959 19.2 4.42309C19.2 4.06162 19.1214 3.72107 18.9753 3.40186C17.9597 5.61913 13.6683 6.80385 9.59998 6.80385Z" fill="#5780A6"/>
</svg>
