<svg xmlns="http://www.w3.org/2000/svg" viewBox="0 0 39 56"  width="30px" height="30px" ><defs><style>.cls-1,.cls-2,.cls-3{fill:#ff7362;}.cls-1{fill-opacity:0.46;}.cls-2{fill-opacity:0.45;stroke:#ff7362;}</style></defs><title>Asset 13</title><g id="Layer_2" data-name="Layer 2"><g id="Port_Icons" data-name="Port Icons"><path class="cls-1" d="M19.5,43.3c-6.68,0-13.79,2.22-13.79,6.35S12.82,56,19.5,56s13.78-2.23,13.78-6.35S26.18,43.3,19.5,43.3Z"/><path class="cls-2" d="M19.09,50h0a67.23,67.23,0,0,1-9.27-9.18l-.38.32.38-.32C3.6,33.31.5,26.19.5,19.63a19,19,0,1,1,38,0c0,6.56-3.1,13.68-9.32,21.16l.38.32-.38-.32A67.29,67.29,0,0,1,19.91,50a.67.67,0,0,1-.82,0Zm.41-22.48a7.86,7.86,0,1,0-7.81-7.86A7.83,7.83,0,0,0,19.5,27.49Z"/><path class="cls-3" d="M19.5,53.07c-5.84,0-12-1.7-13.46-4.89a3.51,3.51,0,0,0-.33,1.47C5.71,53.77,12.82,56,19.5,56s13.78-2.23,13.78-6.35A3.5,3.5,0,0,0,33,48.18C31.5,51.37,25.34,53.07,19.5,53.07Z"/></g></g></svg>