<svg width="32" height="32" viewBox="0 0 32 32" fill="none" xmlns="http://www.w3.org/2000/svg">
<g opacity="0.45">
<mask id="path-1-outside-1" maskUnits="userSpaceOnUse" x="-0.000244141" y="0" width="32" height="32" fill="black">
<rect fill="white" x="-0.000244141" width="32" height="32"/>
<path fill-rule="evenodd" clip-rule="evenodd" d="M15.9998 31C24.284 31 30.9998 24.2843 30.9998 16C30.9998 7.71573 24.284 1 15.9998 1C7.71548 1 0.999756 7.71573 0.999756 16C0.999756 24.2843 7.71548 31 15.9998 31ZM16.2498 22.4997C19.7015 22.4997 22.4998 19.7015 22.4998 16.2497C22.4998 12.7979 19.7015 9.99971 16.2498 9.99971C12.798 9.99971 9.99976 12.7979 9.99976 16.2497C9.99976 19.7015 12.798 22.4997 16.2498 22.4997Z"/>
</mask>
<path fill-rule="evenodd" clip-rule="evenodd" d="M15.9998 31C24.284 31 30.9998 24.2843 30.9998 16C30.9998 7.71573 24.284 1 15.9998 1C7.71548 1 0.999756 7.71573 0.999756 16C0.999756 24.2843 7.71548 31 15.9998 31ZM16.2498 22.4997C19.7015 22.4997 22.4998 19.7015 22.4998 16.2497C22.4998 12.7979 19.7015 9.99971 16.2498 9.99971C12.798 9.99971 9.99976 12.7979 9.99976 16.2497C9.99976 19.7015 12.798 22.4997 16.2498 22.4997Z" fill="#5EB591" fill-opacity="0.4"/>
<path d="M29.9998 16C29.9998 23.732 23.7317 30 15.9998 30V32C24.8363 32 31.9998 24.8366 31.9998 16H29.9998ZM15.9998 2C23.7317 2 29.9998 8.26801 29.9998 16H31.9998C31.9998 7.16344 24.8363 0 15.9998 0V2ZM1.99976 16C1.99976 8.26801 8.26777 2 15.9998 2V0C7.1632 0 -0.000244141 7.16344 -0.000244141 16H1.99976ZM15.9998 30C8.26777 30 1.99976 23.732 1.99976 16H-0.000244141C-0.000244141 24.8366 7.1632 32 15.9998 32V30ZM21.4998 16.2497C21.4998 19.1492 19.1493 21.4997 16.2498 21.4997V23.4997C20.2538 23.4997 23.4998 20.2538 23.4998 16.2497H21.4998ZM16.2498 10.9997C19.1493 10.9997 21.4998 13.3502 21.4998 16.2497H23.4998C23.4998 12.2456 20.2538 8.99971 16.2498 8.99971V10.9997ZM10.9998 16.2497C10.9998 13.3502 13.3503 10.9997 16.2498 10.9997V8.99971C12.2457 8.99971 8.99976 12.2456 8.99976 16.2497H10.9998ZM16.2498 21.4997C13.3503 21.4997 10.9998 19.1492 10.9998 16.2497H8.99976C8.99976 20.2538 12.2457 23.4997 16.2498 23.4997V21.4997Z" fill="#5EB591" mask="url(#path-1-outside-1)"/>
</g>
</svg>
