<svg xmlns="http://www.w3.org/2000/svg" viewBox="0 0 548 196.69"><defs><style>.cls-1{fill:#37414f;}.cls-2{fill:#1f96ff;}.cls-3{fill:#00a4e5;}</style></defs><title>inatech-color</title><g id="Layer_2" data-name="Layer 2"><g id="inatech-logo"><g id="inatech-color"><path class="cls-1" d="M0,39.67H11.75v95.49H0Z"/><path class="cls-1" d="M110.19,39.67V138.1h-1.46L44.23,65V135.8H32.32V36.73h1.45l64.51,73.72V39.67Z"/><path class="cls-1" d="M211.56,49.9H179.24V39.67h76.4V49.9H223.31v85.26h-12V49.9Z"/><path class="cls-1" d="M270.33,39.67h55.25v10.2H282.19V81.32h40.2v10.2h-40.2V125h44v10.2H270.33Z"/><path class="cls-1" d="M342.32,87.55c0-28.78,19.13-47.88,48-47.88,13.14,0,24.56,4.15,32.84,10.79L418,59.32c-6.85-6.09-16.56-9.69-27.41-9.69-22,0-36,15.23-36,37.65,0,22.69,14,37.64,36,37.64A42.17,42.17,0,0,0,418,115.23l4.86,9.14c-8.28,6.64-19.71,10.79-32.56,10.79C361.45,135.16,342.32,116.06,342.32,87.55Z"/><path class="cls-1" d="M440.75,39.67h11.44V81.16H501.3V39.67h11.44v95.49H501.3V91.39H452.19v43.77H440.75Z"/><path class="cls-1" d="M518.62,14.69A14.63,14.63,0,0,1,522.9,4.32a14.69,14.69,0,0,1,20.81,0,14.68,14.68,0,0,1,0,20.74,14.69,14.69,0,0,1-20.81,0A14.63,14.63,0,0,1,518.62,14.69Zm2.45,0a11.35,11.35,0,0,0,3.67,8.64,12.34,12.34,0,0,0,17.14,0,11.35,11.35,0,0,0,3.67-8.64,11.35,11.35,0,0,0-3.67-8.64,11.92,11.92,0,0,0-8.57-3.46,11.42,11.42,0,0,0-8.57,3.46A11.35,11.35,0,0,0,521.07,14.69Zm9.18,1.44v6.63h-3.06V6.05H533a8.15,8.15,0,0,1,4.9,1.44,4.2,4.2,0,0,1,1.84,3.74,3.93,3.93,0,0,1-.62,2,3,3,0,0,1-1.83,1.44,2.67,2.67,0,0,1,1.83,1.73,5.43,5.43,0,0,1,.62,2.59v2.6a1.69,1.69,0,0,0,.3,1.15v.29h-3.36c0-.29-.31-.58-.31-1.16V18.72a3.25,3.25,0,0,0-.61-2,2.7,2.7,0,0,0-2.15-.58Zm0-2.59h3.06a6.05,6.05,0,0,0,2.45-.58,1.71,1.71,0,0,0,.92-1.73,2.19,2.19,0,0,0-.92-2A6.43,6.43,0,0,0,533,8.64h-2.75Z"/><path class="cls-2" d="M177.28,126.62,144.12,44a6.1,6.1,0,0,0-11.35,4.45L139.1,65l7.14,18.16a4,4,0,0,1-3.72,5.46,4.09,4.09,0,0,0-1,.14h-2.68a6.61,6.61,0,0,0-6.61,6.61,6.39,6.39,0,0,0,6.58,6.39h7.11l1.78,0a9.38,9.38,0,0,1,8.5,5.87l9.53,23.63a6.22,6.22,0,0,0,11.55-4.64Z"/><path class="cls-3" d="M139.55,88.72s4.13.08,5.28-.87c.43-.35.19.12.5.07.51-.1-.5,1.49-.5,1.49l-2.73.25Z"/><path class="cls-1" d="M16.14,153.38h2.64q.2,1.58,5.28,14.86,3.57,9.31,5.65,14.17A17.24,17.24,0,0,0,31,185.24a2.78,2.78,0,0,0,1.46.79l1.85.55c.43.13.65.28.65.47s-.34.23-1,.23H23c-.5,0-.74-.1-.74-.28s.21-.29.65-.42l2.26-.69c.53-.16.79-.43.79-.84a12.52,12.52,0,0,0-.88-3.1l-3-8.24H11.33l-3.1,8a13.44,13.44,0,0,0-1,3.24q0,.6.78.84l2.78.83c.31.09.47.23.47.42s-.21.23-.61.23H.86c-.43,0-.65-.08-.65-.23s.2-.34.61-.47l2.31-.69a2,2,0,0,0,1-.67,17,17,0,0,0,1.09-2.44q.88-2.17,4.54-11.48Q16,155.14,16.14,153.38ZM12,171.58h9.31l-4.54-12.27Z"/><path class="cls-1" d="M311.6,184.73A16.38,16.38,0,0,1,304.47,170a17.17,17.17,0,0,1,2.27-7.64,18.7,18.7,0,0,1,6.62-6.67,21.88,21.88,0,0,1,11.63-3,30.43,30.43,0,0,1,9.07,1.39V162q0,.69-.27.69c-.19,0-.37-.34-.56-1a13.13,13.13,0,0,0-1.48-3.89,5.29,5.29,0,0,0-3.34-2.18,16.43,16.43,0,0,0-3.79-.41q-7.61,0-12,4.54-3.9,4-3.89,11.16a16.33,16.33,0,0,0,.46,4.07,14.15,14.15,0,0,0,10.47,10.61,14.52,14.52,0,0,0,3.89.46q6.19,0,9.21-2.82a10.11,10.11,0,0,0,1.85-2.74,14.54,14.54,0,0,0,.7-1.71q.42-1,.69-1c.13,0,.19.09.19.28l-1.3,8.2a32.85,32.85,0,0,1-11.11,2.22A20.13,20.13,0,0,1,311.6,184.73Z"/><path class="cls-1" d="M349.81,164.54a9.81,9.81,0,0,1,1.67-.14,11.33,11.33,0,0,1,8.84,3.89,11.56,11.56,0,0,1,3.1,7.92,11.21,11.21,0,0,1-2.38,7.06,12.32,12.32,0,0,1-6.28,4.28,12.5,12.5,0,0,1-3.89.61,11.56,11.56,0,0,1-7.4-2.5,11.21,11.21,0,0,1-4.36-9.31q0-6.58,6.49-10.56A12.79,12.79,0,0,1,349.81,164.54Zm-3.57,3.66a8.31,8.31,0,0,0-2.77,3.79,9.57,9.57,0,0,0-.7,3.94,11.81,11.81,0,0,0,1.25,4.68,9.85,9.85,0,0,0,3.71,4.12,7.17,7.17,0,0,0,3.79,1.07,7.72,7.72,0,0,0,3.2-.7,8.26,8.26,0,0,0,3.61-3.08,8.12,8.12,0,0,0,1.34-4.56,12.36,12.36,0,0,0-.83-4.4,10.51,10.51,0,0,0-2.55-3.94,8.1,8.1,0,0,0-5.69-2.4,8.46,8.46,0,0,0-1.53.13A7.24,7.24,0,0,0,346.24,168.2Z"/><path class="cls-1" d="M401.78,182.74a19.63,19.63,0,0,0,.18,2.45,1.23,1.23,0,0,0,1,.84l1.76.51q.78.22.78.51c0,.15-.32.23-1,.23h-9c-.65,0-1-.08-1-.23s.26-.36.79-.51l1.76-.51a1.33,1.33,0,0,0,1-.84,21,21,0,0,0,.18-2.45c.1-2.07.13-3.84.1-5.33a40.39,40.39,0,0,0-.14-4.91,7,7,0,0,0-1.9-4.35,3.47,3.47,0,0,0-2.46-.83,4.57,4.57,0,0,0-2.54.74,10.08,10.08,0,0,0-3.57,3.8q0,8.37.09,10.88a12.69,12.69,0,0,0,.26,2.5,1.38,1.38,0,0,0,.95.79l1.43.51c.5.24.74.41.74.51s-.31.23-.92.23h-8.43c-.65,0-1-.08-1-.23s.26-.33.78-.51l1.44-.51a1.37,1.37,0,0,0,.9-.81,13,13,0,0,0,.26-2.48c.09-2.07.12-4,.09-5.84a32.9,32.9,0,0,0-.23-5.18,5.55,5.55,0,0,0-2.11-3.85,3.69,3.69,0,0,0-2-.55,4.74,4.74,0,0,0-2.48.69,10.33,10.33,0,0,0-3.58,3.75c0,6.49,0,10.15.05,11,.05,1.45.1,2.27.13,2.45a1.31,1.31,0,0,0,1,.84l1.72.51q.72.22.72.51c0,.15-.31.23-.92.23H367.5c-.62,0-.93-.08-.93-.23s.26-.36.79-.51l1.76-.51a1.3,1.3,0,0,0,1-.84,19.89,19.89,0,0,0,.19-2.45q.09-2.31.09-6.44t-.09-6.48a13.61,13.61,0,0,0-.23-2.32,1.31,1.31,0,0,0-.93-1l-1.76-.56c-.53-.15-.79-.32-.79-.5s.31-.24.93-.24h6.39v4q2.4-4.72,6.7-4.86a6,6,0,0,1,5.49,2.64,8.76,8.76,0,0,1,1.29,3,10.39,10.39,0,0,1,2.82-3.93,6.91,6.91,0,0,1,4.48-1.67,5.94,5.94,0,0,1,4.66,1.9q2.35,2.64,2.36,8.66Q401.69,180.24,401.78,182.74Z"/><path class="cls-1" d="M415.62,168.66q3.42-4.26,7.87-4.26a10.31,10.31,0,0,1,9.45,5.65,12.13,12.13,0,0,1,1.66,6.11,11.39,11.39,0,0,1-1.06,4.82,12.19,12.19,0,0,1-9.36,7,9,9,0,0,1-1.62.14q-4.68,0-7.08-2.6c0,1.27.07,3.34.14,6.21a19.43,19.43,0,0,0,.18,2.41,1.3,1.3,0,0,0,1,.88l1.76.55c.5.16.74.33.74.51s-.3.23-.92.23h-9.08c-.62,0-.92-.07-.92-.23s.26-.35.78-.51l1.76-.55a1.3,1.3,0,0,0,1-.84,17.89,17.89,0,0,0,.19-2.45q.13-3.53.14-10.93c0-5-.05-8.71-.14-11a13.61,13.61,0,0,0-.23-2.32,1.29,1.29,0,0,0-.93-1l-1.76-.56c-.52-.15-.78-.32-.78-.5s.3-.24.92-.24h6.44Zm2.4-.18a5.81,5.81,0,0,0-2.45,2.82l-.09,9.91a6,6,0,0,0,2.54,2.94,8,8,0,0,0,4.5,1.32,8.07,8.07,0,0,0,2.73-.46,8.34,8.34,0,0,0,4.19-3.2,8.88,8.88,0,0,0,1.5-5.09,9.53,9.53,0,0,0-2.26-6.58,8.32,8.32,0,0,0-6.95-2.87A7.26,7.26,0,0,0,418,168.48Z"/><path class="cls-1" d="M457.62,186.72a.26.26,0,0,1,.14.37c0,.13-.22.19-.56.19h-6.3a14.83,14.83,0,0,0,.14-2.41q-3.19,3.28-6.29,3.29a6.88,6.88,0,0,1-4.4-1.6,7.31,7.31,0,0,1-2.6-4,8.67,8.67,0,0,1,2-7.55,8.56,8.56,0,0,1,6.25-2.36,13.94,13.94,0,0,1,3.15.37,19.4,19.4,0,0,1,2.08.6,12.55,12.55,0,0,0-.41-3.38,5.25,5.25,0,0,0-2.36-2.82,6.67,6.67,0,0,0-3.48-.88,5.67,5.67,0,0,0-2.64.55,4.61,4.61,0,0,0-1.66,2.36c-.56,1.73-1,2.55-1.25,2.46s-.28-.29-.28-.7l.09-5.65a14.32,14.32,0,0,1,6.21-1.2,10.43,10.43,0,0,1,6.15,1.57,6.7,6.7,0,0,1,2.74,4.17,23.6,23.6,0,0,1,.28,4.54l0,7.5a10.13,10.13,0,0,0,.35,3.34C455.25,185.86,456.11,186.26,457.62,186.72Zm-6.35-8.43a2.66,2.66,0,0,0-.78-2.22,6.69,6.69,0,0,0-4.12-1.39,6.57,6.57,0,0,0-1.35.14,4.85,4.85,0,0,0-3,1.9,5.75,5.75,0,0,0-.56,6,4.87,4.87,0,0,0,3.94,2.64q2.55.27,5.79-3.24Z"/><path class="cls-1" d="M463.41,169.82a11.63,11.63,0,0,0-.23-2.41,1.29,1.29,0,0,0-.93-.88l-1.76-.56c-.53-.15-.79-.32-.79-.5s.31-.24.93-.24H467v3a8.85,8.85,0,0,1,7.33-3.84,7.67,7.67,0,0,1,2.76.51,6.36,6.36,0,0,1,4.1,4,18.69,18.69,0,0,1,.56,5.51q0,5.83.09,8.34c.06,1.45.11,2.27.14,2.45a1.33,1.33,0,0,0,1,.84l1.75.51c.49.15.74.32.74.51s-.31.23-.93.23h-9c-.65,0-1-.08-1-.24s.26-.35.79-.51l1.76-.51a1.3,1.3,0,0,0,1-.83,21.48,21.48,0,0,0,.18-2.46q.15-3.12.1-6.73a25.16,25.16,0,0,0-.19-4.27,5.49,5.49,0,0,0-2.64-4.18,5.12,5.12,0,0,0-2.13-.42,5.92,5.92,0,0,0-3.47,1.07,11.86,11.86,0,0,0-3.1,3.29q0,7.5.13,11.25a18.62,18.62,0,0,0,.19,2.45,1.22,1.22,0,0,0,1,.84l1.76.51c.49.15.74.32.74.51s-.31.23-.92.23h-9.08c-.62,0-.93-.08-.93-.23s.26-.36.79-.51l1.76-.51a1.31,1.31,0,0,0,1-.84,19.89,19.89,0,0,0,.19-2.45Q463.54,179.41,463.41,169.82Z"/><path class="cls-1" d="M500.83,183.25l5.28-14.91a3.43,3.43,0,0,0,.23-1c0-.34-.39-.63-1.16-.88l-1.62-.51c-.53-.09-.79-.24-.79-.46s.2-.28.6-.28h8.29c.47,0,.7.1.7.28s-.27.31-.79.46l-1.3.42a1.65,1.65,0,0,0-.85.56,21.91,21.91,0,0,0-1,2.4L501,188.53a24.4,24.4,0,0,1-2.73,5.55,5.43,5.43,0,0,1-4.21,2.6,7.4,7.4,0,0,1-3.85-.79c-.65-.34-1-.66-1.06-1a.94.94,0,0,1,.37-.19,6.65,6.65,0,0,0,1.06.1,7.29,7.29,0,0,0,5.88-3.25,27.19,27.19,0,0,0,2.5-4.12l-7.17-17.09a10.49,10.49,0,0,0-1.58-2.87,4.8,4.8,0,0,0-2.82-1.43.24.24,0,0,1-.14-.19c0-.06,0-.12.14-.18a5.08,5.08,0,0,1,2.87-.79,4.36,4.36,0,0,1,3.61,2.27,27,27,0,0,1,2,4.12Z"/><path class="cls-1" d="M76.05,174.83l-2.29-.69c-.46-.15-.68-.31-.65-.46s.39-.23,1-.23H84.16c.55,0,.83.09.83.28s-.12.24-.46.36l-2,.74a1.8,1.8,0,0,0-1.33,1.79,64.73,64.73,0,0,0,.5,8A25.77,25.77,0,0,1,68.67,188a20.09,20.09,0,0,1-9-1.92q-7.89-4-8.94-13.75-.09-1.06-.09-2.16,0-7.93,5.27-12.43a21.82,21.82,0,0,1,14.58-5.08,36.87,36.87,0,0,1,10.59,1.69l-.73,8.21c0,.46-.15.67-.37.64s-.33-.29-.46-.78l-.87-4a3.27,3.27,0,0,0-.5-1.33,3.54,3.54,0,0,0-1.38-.87,15.07,15.07,0,0,0-6.32-1.2,17.89,17.89,0,0,0-9.95,2.71q-6,3.9-5.83,12.75a19.16,19.16,0,0,0,1.47,7.19,11.79,11.79,0,0,0,5.14,6,15.68,15.68,0,0,0,7.61,2.11A14.71,14.71,0,0,0,75.54,184a3.23,3.23,0,0,0,2.07-2.89,15.13,15.13,0,0,0-.51-5.54A1.46,1.46,0,0,0,76.05,174.83Z"/><path class="cls-1" d="M89.11,158.55a13.83,13.83,0,0,0-.09-2.2,1.14,1.14,0,0,0-.78-1l-2.56-.78c-.53-.16-.78-.33-.78-.51s.3-.23.91-.23h10.5c.61,0,.92.08.92.23s-.26.35-.78.51l-2.57.78a1.13,1.13,0,0,0-.82,1,12.11,12.11,0,0,0-.1,2.2q-.13,4.39-.13,11.78T93,183.22c0,.79.36,1.19,1.06,1.19h7.75a4.9,4.9,0,0,0,1.53-.16,1.23,1.23,0,0,0,.67-.8l1.28-3.35c.12-.43.29-.64.51-.64s.23.1.23.32l-.23,7.11h-20c-.61,0-.91-.08-.91-.23s.25-.36.78-.51l2.56-.78a1.08,1.08,0,0,0,.78-1,15.49,15.49,0,0,0,.09-2.29q.14-4.45.14-11.79C89.25,165.44,89.2,161.52,89.11,158.55Z"/><path class="cls-1" d="M130.19,186.89H108c-.61,0-.91-.08-.91-.23s.26-.36.78-.51l2.56-.78a1.08,1.08,0,0,0,.78-1,15.49,15.49,0,0,0,.09-2.29c.1-3.18.14-7.11.14-11.79s0-8.69-.14-11.78a13.83,13.83,0,0,0-.09-2.2,1.14,1.14,0,0,0-.78-1l-2.56-.78q-.78-.24-.78-.51c0-.15.3-.23.91-.23q7.94,0,13-.09,4.77-.09,8.07-.37v6.19c0,.58-.08.89-.23.92s-.28-.2-.46-.69c-.76-2.05-1.33-3.19-1.7-3.44s-1.74-.36-4.12-.36h-6.28a1.38,1.38,0,0,0-.92.2,1.73,1.73,0,0,0-.18,1L115,168.64H124a3.11,3.11,0,0,0,1.19-.16,2.09,2.09,0,0,0,.69-.94,11.94,11.94,0,0,0,.64-1.65c.09-.25.21-.36.37-.32s.27.1.27.32v8.66c0,.61-.08.95-.23,1s-.38-.09-.5-.55c-.25-.89-.54-1.89-.87-3a1.46,1.46,0,0,0-1.56-1H115l.14,12.29c0,.79.35,1.19,1,1.19h10a4.9,4.9,0,0,0,1.53-.16,1.27,1.27,0,0,0,.69-.78c.17-.41.59-1.54,1.26-3.37.16-.43.34-.64.55-.64s.23.1.23.32Z"/><path class="cls-1" d="M165.9,187.48h-2.48q-1.6-2.05-6.23-7.34Q150.5,172.91,138,159.6q-.09,3.81-.09,10.73,0,7.15.13,11.79a13,13,0,0,0,.1,2.24,1.12,1.12,0,0,0,.77,1l2.62.78c.49.15.73.32.73.51s-.29.23-.87.23H132c-.61,0-.92-.08-.92-.23s.26-.36.78-.51l2.57-.78a1.12,1.12,0,0,0,.78-1,14.23,14.23,0,0,0,.09-2.24q.14-4.63.14-11.79,0-6.92-.14-11.78c0-1.16-.07-3-.23-5.64h2.39q1.65,2.11,6.92,8.07L163,180.88q.09-3.39.09-10.55,0-6.92-.14-11.78a13.83,13.83,0,0,0-.09-2.2,1.14,1.14,0,0,0-.83-1l-2.57-.78c-.52-.16-.77-.33-.77-.51s.3-.23.91-.23H169c.58,0,.87.08.87.23s-.24.35-.73.51l-2.61.78a1.1,1.1,0,0,0-.78,1,13.19,13.19,0,0,0-.1,2.25q-.13,4.86-.13,11.78,0,7.15.13,11.79C165.62,183.28,165.72,185.07,165.9,187.48Z"/><path class="cls-1" d="M175.48,184.36a16.18,16.18,0,0,1-7.06-14.62,17.06,17.06,0,0,1,2.24-7.57,18.58,18.58,0,0,1,6.56-6.6,21.64,21.64,0,0,1,11.51-2.93,30.14,30.14,0,0,1,9,1.37v7.8c0,.45-.09.68-.27.68s-.37-.33-.55-1a13.06,13.06,0,0,0-1.47-3.85,5.23,5.23,0,0,0-3.3-2.15,15.64,15.64,0,0,0-3.76-.41q-7.52,0-11.92,4.49-3.85,4-3.85,11.05a16,16,0,0,0,.46,4,14,14,0,0,0,10.36,10.5,14.26,14.26,0,0,0,3.85.46c4.09,0,7.14-.93,9.12-2.8a10.43,10.43,0,0,0,1.84-2.7,17,17,0,0,0,.68-1.7c.28-.67.51-1,.69-1s.19.1.19.28l-1.29,8.11a32.41,32.41,0,0,1-11,2.2A19.86,19.86,0,0,1,175.48,184.36Z"/><path class="cls-1" d="M214.35,155.82a15.48,15.48,0,0,1,3.53-.41,14.81,14.81,0,0,1,10.59,4.36,13.75,13.75,0,0,1,3.3,5.22,18.5,18.5,0,0,1,1,6.19,14.33,14.33,0,0,1-.55,4.08q-2.15,7.67-10.08,9.58a14.89,14.89,0,0,1-3.4.37,14,14,0,0,1-10.63-4.42A15.53,15.53,0,0,1,204,169.71a14.8,14.8,0,0,1,.65-4.44Q207,157.65,214.35,155.82Zm-4.73-.87A16.31,16.31,0,0,0,200,168.16,17.8,17.8,0,0,0,200,170a19.35,19.35,0,0,0,1.33,7.06,16.07,16.07,0,0,0,4.58,6.79,17.2,17.2,0,0,0,11.47,4.3,22.75,22.75,0,0,0,6.46-1,18.87,18.87,0,0,0,7.75-4.31,15.77,15.77,0,0,0,4.63-7.66,18.23,18.23,0,0,0,.6-4.72,17.4,17.4,0,0,0-3.67-11.37,16.75,16.75,0,0,0-13.66-6.28,24.17,24.17,0,0,0-2.94.18A23.09,23.09,0,0,0,209.62,155Z"/><path class="cls-1" d="M244.74,170.26c-.46,0-.9,0-1.33,0l0-9.45v-2.15c0-.86,0-1.29,0-1.29a1.18,1.18,0,0,1,.87-1.09,4.89,4.89,0,0,1,1.83-.28,8.75,8.75,0,0,1,4.68,1.19,6.45,6.45,0,0,1,3.3,6.19,6.62,6.62,0,0,1-4,5.92A12.2,12.2,0,0,1,244.74,170.26Zm-9.4-16.13c0,.18.26.35.78.5l2.57.78a1.15,1.15,0,0,1,.78,1.05,14,14,0,0,1,.09,2.21c.09,3.24.14,7.16.14,11.78,0,4.77,0,8.69-.14,11.78a14.5,14.5,0,0,1-.09,2.25,1.14,1.14,0,0,1-.78,1l-2.57.78c-.52.15-.78.32-.78.5s.31.23.92.23h10.5c.61,0,.91-.08.91-.23s-.26-.35-.78-.5l-2.56-.78a1.16,1.16,0,0,1-.83-1.06,15,15,0,0,1-.09-2.2v-9.54a5.82,5.82,0,0,0,1.24,0l9.67,10.05c3.3,3.42,9.39,8.44,11.45,9.38,2.93,1.32,9.09,3.07,13.16.55.27-.16-4.35-.34-6-.59a21.16,21.16,0,0,1-4.53-1.47c-3-1.43-6.89-4.91-8.88-7l-10.05-11.38q5.4-1.29,7.47-4.68a9.29,9.29,0,0,0,1.28-4.86,8.26,8.26,0,0,0-1.05-4.26,9,9,0,0,0-5.32-4.27,23.28,23.28,0,0,0-6.23-.46l-9.4.19C235.65,153.9,235.34,154,235.34,154.13Z"/><path class="cls-1" d="M286.84,186.92H264.65c-.61,0-.92-.07-.92-.22s.26-.36.78-.51l2.57-.78a1.08,1.08,0,0,0,.78-1,15.49,15.49,0,0,0,.09-2.29q.14-4.77.14-11.79T268,158.59a13.83,13.83,0,0,0-.09-2.2,1.14,1.14,0,0,0-.78-1l-2.57-.78q-.78-.24-.78-.51c0-.15.31-.23.92-.23q7.94,0,13-.09,4.77-.09,8.07-.37v6.19c0,.58-.07.89-.23.92s-.27-.2-.45-.69c-.77-2.05-1.33-3.19-1.7-3.44s-1.74-.36-4.13-.36H272.9a1.35,1.35,0,0,0-.91.2,1.63,1.63,0,0,0-.19,1l-.14,11.51h8.94a3.17,3.17,0,0,0,1.2-.16,2.09,2.09,0,0,0,.69-.94,13.37,13.37,0,0,0,.64-1.65c.09-.25.21-.36.36-.32s.28.1.28.32v8.66c0,.61-.08.95-.23,1s-.38-.09-.51-.55c-.24-.89-.53-1.89-.87-3A1.44,1.44,0,0,0,280.6,171h-8.94l.14,12.29c0,.79.35,1.19,1.06,1.19h9.95a4.9,4.9,0,0,0,1.53-.16,1.29,1.29,0,0,0,.69-.78c.17-.41.59-1.54,1.26-3.37.15-.43.34-.64.55-.64s.23.1.23.32Z"/></g></g></g></svg>