<?xml version="1.0" encoding="utf-8"?>
<!-- Generator: Adobe Illustrator 22.1.0, SVG Export Plug-In . SVG Version: 6.00 Build 0)  -->
<svg version="1.1" id="Capa_1" xmlns="http://www.w3.org/2000/svg" xmlns:xlink="http://www.w3.org/1999/xlink" x="0px" y="0px"
	 viewBox="0 0 512 512" style="enable-background:new 0 0 512 512;" xml:space="preserve">
<style type="text/css">
	.st0{fill:none;stroke:#FFFFFF;stroke-width:30;stroke-linecap:round;stroke-miterlimit:10;}
</style>
<path class="st0" d="M344.7,57.1c27.3,11.5,51.8,28.2,72.5,48.9s37.3,45.2,48.9,72.5c11.5,27.3,17.9,57.3,17.9,88.7
	s-6.4,61.5-17.9,88.7c-11.5,27.3-28.2,51.8-48.9,72.5s-45.2,37.3-72.5,48.9c-27.3,11.5-57.3,17.9-88.7,17.9s-61.5-6.4-88.7-17.9
	c-27.3-11.5-51.8-28.2-72.5-48.9s-37.3-45.2-48.9-72.5C34.4,328.7,28,298.7,28,267.2s6.4-61.5,17.9-88.7s28.2-51.8,48.9-72.5
	s45.2-37.3,72.5-48.9"/>
<line class="st0" x1="256" y1="14.9" x2="256" y2="319.9"/>
</svg>
