<svg width="13" height="13" viewBox="0 0 13 13" fill="none" xmlns="http://www.w3.org/2000/svg">
<path d="M9.75118 5.84998H8.45117V7.14998H9.75118V5.84998Z" fill="#364150"/>
<path d="M7.14962 5.84998H5.84961V7.14998H7.14962V5.84998Z" fill="#364150"/>
<path d="M4.55002 5.84998H3.25V7.14998H4.55002V5.84998Z" fill="#364150"/>
<path d="M11.0504 1.30001H10.4004V0H9.1004V1.30001H3.9004V0H2.60039V1.30001H1.9504C1.2289 1.30001 0.656911 1.88501 0.656911 2.60002L0.650391 11.7C0.650391 12.415 1.2289 13 1.9504 13H11.0504C11.7654 13 12.3504 12.415 12.3504 11.7V2.59999C12.3504 1.88501 11.7654 1.30001 11.0504 1.30001ZM11.0504 11.7H1.9504V4.54999H11.0504V11.7Z" fill="#364150"/>
</svg>
