<svg width="6" height="6" viewBox="0 0 6 6" fill="none" xmlns="http://www.w3.org/2000/svg">
<path d="M6.29799 0.456409H5.50335V0.114102C5.50335 0.0510037 5.4526 0 5.38983 0H4.59519C4.53241 0 4.48167 0.0510037 4.48167 0.114102V0.456409H1.98422V0.114102C1.98422 0.0510037 1.93348 0 1.8707 0H1.07606C1.01329 0 0.962543 0.0510037 0.962543 0.114102V0.456409H0.167902C0.105126 0.456409 0.0543823 0.507413 0.0543823 0.570511V1.82564V6.73203C0.0543823 6.79513 0.105126 6.84613 0.167902 6.84613H6.29799C6.36076 6.84613 6.41151 6.79513 6.41151 6.73203V1.82564V0.570511C6.41151 0.507413 6.36076 0.456409 6.29799 0.456409ZM4.70871 0.228204H5.27631V0.570511V0.912818H4.70871V0.570511V0.228204ZM1.18958 0.228204H1.75718V0.570511V0.912818H1.18958V0.570511V0.228204ZM0.281423 0.684613H0.962543V1.02692C0.962543 1.09002 1.01329 1.14102 1.07606 1.14102H1.8707C1.93348 1.14102 1.98422 1.09002 1.98422 1.02692V0.684613H4.48167V1.02692C4.48167 1.09002 4.53241 1.14102 4.59519 1.14102H5.38983C5.4526 1.14102 5.50335 1.09002 5.50335 1.02692V0.684613H6.18447V1.71153H0.281423V0.684613ZM0.281423 6.61793V1.93974H6.18447V6.61793H0.281423Z" fill="#7791A8"/>
<path d="M4.14103 2.62451H3.34639H3.11935H2.32471H2.09767H1.07599V3.65143V3.87964V4.67835V4.90656V5.93348H2.09767H2.32471H3.11935H3.34639H4.14103H4.36807H5.38975V4.90656V4.67835V3.87964V3.65143V2.62451H4.36807H4.14103ZM3.34639 2.85272H4.14103V3.65143H3.34639V2.85272ZM4.14103 4.67835H3.34639V3.87964H4.14103V4.67835ZM2.32471 3.87964H3.11935V4.67835H2.32471V3.87964ZM2.32471 2.85272H3.11935V3.65143H2.32471V2.85272ZM1.30303 2.85272H2.09767V3.65143H1.30303V2.85272ZM1.30303 3.87964H2.09767V4.67835H1.30303V3.87964ZM2.09767 5.70527H1.30303V4.90656H2.09767V5.70527ZM3.11935 5.70527H2.32471V4.90656H3.11935V5.70527ZM4.14103 5.70527H3.34639V4.90656H4.14103V5.70527ZM5.16271 5.70527H4.36807V4.90656H5.16271V5.70527ZM5.16271 4.67835H4.36807V3.87964H5.16271V4.67835ZM5.16271 2.85272V3.65143H4.36807V2.85272H5.16271Z" fill="#7791A8"/>
</svg>
