<svg width="19" height="19" viewBox="0 0 19 19" fill="none" xmlns="http://www.w3.org/2000/svg">
<g filter="url(#filter0_i)">
<path d="M0.95484 8.00128C0.958612 3.5825 4.54417 0.00660844 8.96294 0.0147595L10.9601 0.0184435C15.3778 0.0265927 18.9557 3.61414 18.9519 8.03191L18.9502 10.0319C18.9465 14.4507 15.3609 18.0266 10.9421 18.0184L8.945 18.0148C4.52723 18.0066 0.949361 14.4191 0.953132 10.0013L0.95484 8.00128Z" fill="white"/>
</g>
<path d="M13.5737 5.10714C13.2588 4.79241 12.7484 4.79241 12.4336 5.10714L9.79046 7.75013L7.18586 5.14541C6.87101 4.83068 6.36065 4.83068 6.0457 5.14541C5.73086 5.46036 5.73086 5.97072 6.0457 6.28556L8.65031 8.89017L6.08397 11.4565C5.76913 11.7715 5.76913 12.2818 6.08397 12.5967C6.24144 12.754 6.44772 12.8327 6.6541 12.8327C6.86037 12.8327 7.06676 12.754 7.22423 12.5967L9.79046 10.0304L12.3951 12.635C12.5525 12.7924 12.7588 12.8711 12.9652 12.8711C13.1715 12.8711 13.3779 12.7924 13.5353 12.635C13.8502 12.3201 13.8502 11.8097 13.5353 11.4949L10.9307 8.89028L13.5737 6.2473C13.8885 5.93235 13.8885 5.42198 13.5737 5.10714Z" fill="#455064"/>
<defs>
<filter id="filter0_i" x="0.953125" y="0.0147705" width="17.9988" height="20.0037" filterUnits="userSpaceOnUse" color-interpolation-filters="sRGB">
<feFlood flood-opacity="0" result="BackgroundImageFix"/>
<feBlend mode="normal" in="SourceGraphic" in2="BackgroundImageFix" result="shape"/>
<feColorMatrix in="SourceAlpha" type="matrix" values="0 0 0 0 0 0 0 0 0 0 0 0 0 0 0 0 0 0 127 0" result="hardAlpha"/>
<feOffset dy="2"/>
<feGaussianBlur stdDeviation="2"/>
<feComposite in2="hardAlpha" operator="arithmetic" k2="-1" k3="1"/>
<feColorMatrix type="matrix" values="0 0 0 0 0 0 0 0 0 0 0 0 0 0 0 0 0 0 0.25 0"/>
<feBlend mode="normal" in2="shape" result="effect1_innerShadow"/>
</filter>
</defs>
</svg>
