<svg width="18" height="18" viewBox="0 0 18 18" fill="none" xmlns="http://www.w3.org/2000/svg">
<path d="M8.1458 10.1152C8.29841 10.2678 8.29841 10.5159 8.1458 10.6685L2.66755 16.1468C2.51494 16.2994 2.26684 16.2994 2.11423 16.1468C2.03833 16.0701 1.99996 15.9699 1.99996 15.8697C1.99996 15.7695 2.0383 15.6694 2.11423 15.5935L7.59248 10.1152C7.74509 9.96261 7.99319 9.96261 8.1458 10.1152Z" fill="#5780A6"/>
<path d="M8.26123 10.3916V15.0872C8.26123 15.3032 8.08591 15.4785 7.86992 15.4785C7.65392 15.4785 7.47864 15.3032 7.47864 15.0872V10.3916C7.47864 10.1756 7.65395 10.0002 7.86995 10.0002C8.08595 10.0002 8.26123 10.1756 8.26123 10.3916Z" fill="#5780A6"/>
<path d="M16.146 2.11448C16.2987 2.26709 16.2987 2.51519 16.146 2.6678L10.6678 8.14604C10.5152 8.29865 10.2671 8.29865 10.1145 8.14604C10.0386 8.06933 10.0002 7.96918 10.0002 7.869C10.0002 7.76881 10.0385 7.66866 10.1145 7.59273L15.5927 2.11448C15.7453 1.96187 15.9934 1.96187 16.146 2.11448Z" fill="#5780A6"/>
<path d="M15.4783 7.86894C15.4783 8.08494 15.303 8.26025 15.087 8.26025H10.3913C10.1753 8.26025 9.99999 8.08494 9.99999 7.86894C9.99999 7.65294 10.1753 7.47766 10.3913 7.47766H15.087C15.303 7.47766 15.4783 7.65294 15.4783 7.86894Z" fill="#5780A6"/>
<path d="M10.783 3.17329V7.86894C10.783 8.08494 10.6076 8.26025 10.3916 8.26025C10.1756 8.26025 10.0003 8.08494 10.0003 7.86894V3.17329C10.0003 2.95729 10.1756 2.78197 10.3916 2.78197C10.6076 2.78201 10.783 2.95729 10.783 3.17329Z" fill="#5780A6"/>
<path d="M17.9999 1.17391V16.8261C17.9999 17.4733 17.4732 18 16.826 18H1.17379C0.52656 18 -0.00012207 17.4733 -0.00012207 16.8261V1.17391C-0.00012207 0.526682 0.52656 0 1.17379 0H16.826C17.4732 0 17.9999 0.52672 17.9999 1.17391ZM1.17379 0.782631C0.958561 0.782631 0.782473 0.958719 0.782473 1.17395V16.8261C0.782473 17.0413 0.958561 17.2174 1.17379 17.2174H16.826C17.0412 17.2174 17.2173 17.0413 17.2173 16.8261V1.17391C17.2173 0.958683 17.0412 0.782595 16.826 0.782595H1.17379V0.782631Z" fill="#5780A6"/>
<path d="M8.26123 10.3914C8.26123 10.6074 8.08591 10.7827 7.86991 10.7827H3.17427C2.95827 10.7827 2.78295 10.6074 2.78295 10.3914C2.78295 10.1754 2.95827 10.0001 3.17427 10.0001H7.86991C8.08591 10.0001 8.26123 10.1754 8.26123 10.3914Z" fill="#5780A6"/>
</svg>
