<svg width="6" height="7" viewBox="0 0 6 7" fill="none" xmlns="http://www.w3.org/2000/svg">
<path opacity="0.8" d="M4.99971 1.59167V1.11945H5.3435V0H0.45636V1.11941H0.800147V1.59163C0.800147 2.36175 1.21816 3.03453 1.83799 3.39998C1.21812 3.76543 0.800147 4.43821 0.800147 5.20833V5.68055H0.45636V6.79996H5.3435V5.68055H4.99971V5.20833C4.99971 4.43821 4.58169 3.76543 3.96187 3.39998C4.58169 3.03457 4.99971 2.36175 4.99971 1.59167ZM4.41684 5.20833V5.68055H1.38301V5.20833C1.38301 4.37198 2.06349 3.69143 2.89991 3.69143C3.73633 3.69143 4.41684 4.37202 4.41684 5.20833ZM2.89995 3.10857C2.06352 3.10857 1.38305 2.42798 1.38305 1.59167V1.11945H4.41688V1.59167C4.41684 2.42802 3.73637 3.10857 2.89995 3.10857Z" fill="#7791A8"/>
</svg>
