<svg width="12" height="12" viewBox="0 0 12 12" fill="none" xmlns="http://www.w3.org/2000/svg">
<g opacity="0.5">
<path d="M11.3999 0.8H9.9999V0.2C9.9999 0.0894 9.9105 0 9.7999 0H8.3999C8.2893 0 8.1999 0.0894 8.1999 0.2V0.8H3.7999V0.2C3.7999 0.0894 3.7105 0 3.5999 0H2.1999C2.0893 0 1.9999 0.0894 1.9999 0.2V0.8H0.599902C0.489302 0.8 0.399902 0.8894 0.399902 1V3.2V11.8C0.399902 11.9106 0.489302 12 0.599902 12H11.3999C11.5105 12 11.5999 11.9106 11.5999 11.8V3.2V1C11.5999 0.8894 11.5105 0.8 11.3999 0.8ZM8.5999 0.4H9.5999V1V1.6H8.5999V1V0.4ZM2.3999 0.4H3.3999V1V1.6H2.3999V1V0.4ZM0.799902 1.2H1.9999V1.8C1.9999 1.9106 2.0893 2 2.1999 2H3.5999C3.7105 2 3.7999 1.9106 3.7999 1.8V1.2H8.1999V1.8C8.1999 1.9106 8.2893 2 8.3999 2H9.7999C9.9105 2 9.9999 1.9106 9.9999 1.8V1.2H11.1999V3H0.799902V1.2ZM0.799902 11.6V3.4H11.1999V11.6H0.799902Z" fill="#5780A6"/>
<path d="M7.59971 4.6001H6.19971H5.79971H4.39971H3.99971H2.19971V6.4001V6.8001V8.2001V8.6001V10.4001H3.99971H4.39971H5.79971H6.19971H7.59971H7.99971H9.79971V8.6001V8.2001V6.8001V6.4001V4.6001H7.99971H7.59971ZM6.19971 5.0001H7.59971V6.4001H6.19971V5.0001ZM7.59971 8.2001H6.19971V6.8001H7.59971V8.2001ZM4.39971 6.8001H5.79971V8.2001H4.39971V6.8001ZM4.39971 5.0001H5.79971V6.4001H4.39971V5.0001ZM2.59971 5.0001H3.99971V6.4001H2.59971V5.0001ZM2.59971 6.8001H3.99971V8.2001H2.59971V6.8001ZM3.99971 10.0001H2.59971V8.6001H3.99971V10.0001ZM5.79971 10.0001H4.39971V8.6001H5.79971V10.0001ZM7.59971 10.0001H6.19971V8.6001H7.59971V10.0001ZM9.39971 10.0001H7.99971V8.6001H9.39971V10.0001ZM9.39971 8.2001H7.99971V6.8001H9.39971V8.2001ZM9.39971 5.0001V6.4001H7.99971V5.0001H9.39971Z" fill="#5780A6"/>
</g>
</svg>
