<svg width="18" height="18" viewBox="0 0 18 18" fill="none" xmlns="http://www.w3.org/2000/svg">
<g opacity="0.2" filter="url(#filter0_i)">
<path d="M6.89631 15.3085C10.6109 16.334 14.4535 14.1541 15.479 10.4395C16.5045 6.725 14.3246 2.88241 10.6101 1.85688C6.89552 0.831353 3.05292 3.01124 2.0274 6.72579C1.00187 10.4403 3.18176 14.2829 6.89631 15.3085Z" fill="url(#paint0_radial)"/>
<path d="M6.89631 15.3085C10.6109 16.334 14.4535 14.1541 15.479 10.4395C16.5045 6.725 14.3246 2.88241 10.6101 1.85688C6.89552 0.831353 3.05292 3.01124 2.0274 6.72579C1.00187 10.4403 3.18176 14.2829 6.89631 15.3085Z" fill="url(#paint1_linear)"/>
</g>
<g clip-path="url(#clip0)">
<path d="M11.689 9.93831C11.3216 9.93831 10.9609 9.88086 10.6191 9.76791C10.4517 9.71078 10.2458 9.76319 10.1436 9.86817L9.46891 10.3775C8.68652 9.95981 8.20458 9.47803 7.79264 8.70152L8.28694 8.04445C8.41536 7.9162 8.46143 7.72886 8.40624 7.55308C8.2928 7.20948 8.23518 6.84897 8.23518 6.48147C8.23519 6.21598 8.01921 6 7.75374 6H6.65186C6.38639 6 6.17041 6.21598 6.17041 6.48145C6.17041 9.52442 8.646 12 11.689 12C11.9544 12 12.1704 11.784 12.1704 11.5185V10.4198C12.1704 10.1543 11.9544 9.93831 11.689 9.93831Z" fill="#66B0D6"/>
</g>
<defs>
<filter id="filter0_i" x="0.17041" y="0" width="17.1653" height="19.1653" filterUnits="userSpaceOnUse" color-interpolation-filters="sRGB">
<feFlood flood-opacity="0" result="BackgroundImageFix"/>
<feBlend mode="normal" in="SourceGraphic" in2="BackgroundImageFix" result="shape"/>
<feColorMatrix in="SourceAlpha" type="matrix" values="0 0 0 0 0 0 0 0 0 0 0 0 0 0 0 0 0 0 127 0" result="hardAlpha"/>
<feOffset dy="2"/>
<feGaussianBlur stdDeviation="1"/>
<feComposite in2="hardAlpha" operator="arithmetic" k2="-1" k3="1"/>
<feColorMatrix type="matrix" values="0 0 0 0 0 0 0 0 0 0 0 0 0 0 0 0 0 0 1 0"/>
<feBlend mode="normal" in2="shape" result="effect1_innerShadow"/>
</filter>
<radialGradient id="paint0_radial" cx="0" cy="0" r="1" gradientUnits="userSpaceOnUse" gradientTransform="translate(8.49049 8.73103) rotate(15.434) scale(6.85245)">
<stop stop-color="#C4C4C4"/>
<stop offset="0.1143" stop-color="#66B0D6"/>
<stop offset="0.2749" stop-color="#66B0D6"/>
<stop offset="0.4411" stop-color="#66B0D6"/>
<stop offset="0.613" stop-color="#66B0D6"/>
<stop offset="0.7942" stop-color="#66B0D6"/>
<stop offset="1" stop-color="#66B0D6"/>
</radialGradient>
<linearGradient id="paint1_linear" x1="10.6101" y1="1.85688" x2="6.89631" y2="15.3085" gradientUnits="userSpaceOnUse">
<stop stop-color="#445061"/>
<stop offset="1" stop-color="#37414F"/>
</linearGradient>
<clipPath id="clip0">
<rect x="6.17041" y="6" width="6" height="6" fill="white"/>
</clipPath>
</defs>
</svg>
