<svg width="12" height="12" viewBox="0 0 12 12" fill="none" xmlns="http://www.w3.org/2000/svg">
<path d="M7.0994 6.0107L11.772 1.338C12.076 1.03406 12.076 0.542636 11.772 0.238697C11.468 -0.0652427 10.9766 -0.0652427 10.6727 0.238697L5.99994 4.91139L1.32737 0.238697C1.02329 -0.0652427 0.532003 -0.0652427 0.228062 0.238697C-0.0760207 0.542636 -0.0760207 1.03406 0.228062 1.338L4.90063 6.0107L0.228062 10.6834C-0.0760207 10.9873 -0.0760207 11.4788 0.228062 11.7827C0.379534 11.9343 0.578697 12.0105 0.777718 12.0105C0.976738 12.0105 1.17576 11.9343 1.32737 11.7827L5.99994 7.11001L10.6727 11.7827C10.8243 11.9343 11.0233 12.0105 11.2223 12.0105C11.4213 12.0105 11.6204 11.9343 11.772 11.7827C12.076 11.4788 12.076 10.9873 11.772 10.6834L7.0994 6.0107Z" fill="#ED6161"/>
</svg>
