<svg width="142" height="16" viewBox="0 0 142 16" fill="none" xmlns="http://www.w3.org/2000/svg">
<path d="M28.4688 9.8418C28.3457 10.8945 27.9561 11.708 27.2998 12.2822C26.6481 12.8519 25.7799 13.1367 24.6953 13.1367C23.5195 13.1367 22.5762 12.7152 21.8652 11.8721C21.1589 11.029 20.8057 9.90104 20.8057 8.48828V7.53125C20.8057 6.60612 20.9697 5.79264 21.2979 5.09082C21.6305 4.389 22.0999 3.85124 22.7061 3.47754C23.3122 3.09928 24.014 2.91016 24.8115 2.91016C25.8688 2.91016 26.7165 3.20638 27.3545 3.79883C27.9925 4.38672 28.3639 5.20247 28.4688 6.24609H27.1494C27.0355 5.45312 26.7871 4.87891 26.4043 4.52344C26.026 4.16797 25.4951 3.99023 24.8115 3.99023C23.973 3.99023 23.3145 4.30013 22.8359 4.91992C22.362 5.53971 22.125 6.42155 22.125 7.56543V8.5293C22.125 9.60938 22.3506 10.4684 22.8018 11.1064C23.2529 11.7445 23.8841 12.0635 24.6953 12.0635C25.4245 12.0635 25.9827 11.8994 26.3701 11.5713C26.762 11.2386 27.0218 10.6621 27.1494 9.8418H28.4688ZM33.6436 6.73828C33.4521 6.70638 33.2448 6.69043 33.0215 6.69043C32.1921 6.69043 31.6292 7.04362 31.333 7.75V13H30.0684V5.60352H31.2988L31.3193 6.45801C31.734 5.7972 32.3219 5.4668 33.083 5.4668C33.3291 5.4668 33.516 5.4987 33.6436 5.5625V6.73828ZM37.7451 13.1367C36.7425 13.1367 35.9268 12.8086 35.2979 12.1523C34.6689 11.4915 34.3545 10.6097 34.3545 9.50684V9.27441C34.3545 8.54069 34.4935 7.88672 34.7715 7.3125C35.054 6.73372 35.446 6.28255 35.9473 5.95898C36.4531 5.63086 37 5.4668 37.5879 5.4668C38.5495 5.4668 39.2969 5.78353 39.8301 6.41699C40.3633 7.05046 40.6299 7.95736 40.6299 9.1377V9.66406H35.6191C35.6374 10.3932 35.8493 10.9834 36.2549 11.4346C36.665 11.8812 37.1846 12.1045 37.8135 12.1045C38.2601 12.1045 38.6383 12.0133 38.9482 11.8311C39.2581 11.6488 39.5293 11.4072 39.7617 11.1064L40.5342 11.708C39.9144 12.6605 38.9847 13.1367 37.7451 13.1367ZM37.5879 6.50586C37.0775 6.50586 36.6491 6.69271 36.3027 7.06641C35.9564 7.43555 35.7422 7.95508 35.6602 8.625H39.3652V8.5293C39.3288 7.88672 39.1556 7.38997 38.8457 7.03906C38.5358 6.68359 38.1165 6.50586 37.5879 6.50586ZM46.666 13C46.5931 12.8542 46.5339 12.5944 46.4883 12.2207C45.9004 12.8314 45.1986 13.1367 44.3828 13.1367C43.6536 13.1367 43.0544 12.9316 42.585 12.5215C42.1201 12.1068 41.8877 11.5827 41.8877 10.9492C41.8877 10.179 42.1794 9.58203 42.7627 9.1582C43.3506 8.72982 44.1755 8.51562 45.2373 8.51562H46.4678V7.93457C46.4678 7.49251 46.3356 7.1416 46.0713 6.88184C45.807 6.61751 45.4173 6.48535 44.9023 6.48535C44.4512 6.48535 44.0729 6.59928 43.7676 6.82715C43.4622 7.05501 43.3096 7.33073 43.3096 7.6543H42.0381C42.0381 7.28516 42.168 6.92969 42.4277 6.58789C42.6921 6.24154 43.0475 5.9681 43.4941 5.76758C43.9453 5.56706 44.4398 5.4668 44.9775 5.4668C45.8298 5.4668 46.4974 5.68099 46.9805 6.10938C47.4635 6.5332 47.7142 7.11882 47.7324 7.86621V11.2705C47.7324 11.9495 47.819 12.4896 47.9922 12.8906V13H46.666ZM44.5674 12.0361C44.9639 12.0361 45.3398 11.9336 45.6953 11.7285C46.0508 11.5234 46.3083 11.2568 46.4678 10.9287V9.41113H45.4766C43.9271 9.41113 43.1523 9.86458 43.1523 10.7715C43.1523 11.168 43.2845 11.4779 43.5488 11.7012C43.8132 11.9245 44.1527 12.0361 44.5674 12.0361ZM51.4307 3.8125V5.60352H52.8115V6.58105H51.4307V11.168C51.4307 11.4642 51.4922 11.6875 51.6152 11.8379C51.7383 11.9837 51.9479 12.0566 52.2441 12.0566C52.39 12.0566 52.5905 12.0293 52.8457 11.9746V13C52.513 13.0911 52.1895 13.1367 51.875 13.1367C51.3099 13.1367 50.8838 12.9658 50.5967 12.624C50.3096 12.2822 50.166 11.7969 50.166 11.168V6.58105H48.8193V5.60352H50.166V3.8125H51.4307ZM57.3643 13.1367C56.3617 13.1367 55.5459 12.8086 54.917 12.1523C54.2881 11.4915 53.9736 10.6097 53.9736 9.50684V9.27441C53.9736 8.54069 54.1126 7.88672 54.3906 7.3125C54.6732 6.73372 55.0651 6.28255 55.5664 5.95898C56.0723 5.63086 56.6191 5.4668 57.207 5.4668C58.1686 5.4668 58.916 5.78353 59.4492 6.41699C59.9824 7.05046 60.249 7.95736 60.249 9.1377V9.66406H55.2383C55.2565 10.3932 55.4684 10.9834 55.874 11.4346C56.2842 11.8812 56.8037 12.1045 57.4326 12.1045C57.8792 12.1045 58.2575 12.0133 58.5674 11.8311C58.8773 11.6488 59.1484 11.4072 59.3809 11.1064L60.1533 11.708C59.5335 12.6605 58.6038 13.1367 57.3643 13.1367ZM57.207 6.50586C56.6966 6.50586 56.2682 6.69271 55.9219 7.06641C55.5755 7.43555 55.3613 7.95508 55.2793 8.625H58.9844V8.5293C58.9479 7.88672 58.7747 7.38997 58.4648 7.03906C58.1549 6.68359 57.7357 6.50586 57.207 6.50586ZM66.3877 5.60352L66.4287 6.5332C66.9938 5.82227 67.7321 5.4668 68.6436 5.4668C70.2067 5.4668 70.9951 6.34863 71.0088 8.1123V13H69.7441V8.10547C69.7396 7.57227 69.6165 7.17806 69.375 6.92285C69.138 6.66764 68.7666 6.54004 68.2607 6.54004C67.8506 6.54004 67.4906 6.64941 67.1807 6.86816C66.8708 7.08691 66.6292 7.37402 66.4561 7.72949V13H65.1914V5.60352H66.3877ZM75.9854 13.1367C74.9827 13.1367 74.167 12.8086 73.5381 12.1523C72.9092 11.4915 72.5947 10.6097 72.5947 9.50684V9.27441C72.5947 8.54069 72.7337 7.88672 73.0117 7.3125C73.2943 6.73372 73.6862 6.28255 74.1875 5.95898C74.6934 5.63086 75.2402 5.4668 75.8281 5.4668C76.7897 5.4668 77.5371 5.78353 78.0703 6.41699C78.6035 7.05046 78.8701 7.95736 78.8701 9.1377V9.66406H73.8594C73.8776 10.3932 74.0895 10.9834 74.4951 11.4346C74.9053 11.8812 75.4248 12.1045 76.0537 12.1045C76.5003 12.1045 76.8786 12.0133 77.1885 11.8311C77.4984 11.6488 77.7695 11.4072 78.002 11.1064L78.7744 11.708C78.1546 12.6605 77.2249 13.1367 75.9854 13.1367ZM75.8281 6.50586C75.3177 6.50586 74.8893 6.69271 74.543 7.06641C74.1966 7.43555 73.9824 7.95508 73.9004 8.625H77.6055V8.5293C77.569 7.88672 77.3958 7.38997 77.0859 7.03906C76.776 6.68359 76.3568 6.50586 75.8281 6.50586ZM86.8887 11.2568L88.3105 5.60352H89.5752L87.4219 13H86.3965L84.5986 7.39453L82.8486 13H81.8232L79.6768 5.60352H80.9346L82.3906 11.1406L84.1133 5.60352H85.1318L86.8887 11.2568ZM94.9619 13V6.58105H93.793V5.60352H94.9619V4.84473C94.9619 4.05176 95.1738 3.4388 95.5977 3.00586C96.0215 2.57292 96.6208 2.35645 97.3955 2.35645C97.6872 2.35645 97.9766 2.39518 98.2637 2.47266L98.1953 3.49805C97.9811 3.45703 97.7533 3.43652 97.5117 3.43652C97.1016 3.43652 96.7848 3.55729 96.5615 3.79883C96.3382 4.03581 96.2266 4.3776 96.2266 4.82422V5.60352H97.8057V6.58105H96.2266V13H94.9619ZM98.8721 9.2334C98.8721 8.50879 99.0133 7.8571 99.2959 7.27832C99.583 6.69954 99.9795 6.25293 100.485 5.93848C100.996 5.62402 101.577 5.4668 102.229 5.4668C103.236 5.4668 104.049 5.81543 104.669 6.5127C105.293 7.20996 105.605 8.13737 105.605 9.29492V9.38379C105.605 10.1038 105.466 10.751 105.188 11.3252C104.915 11.8949 104.521 12.3392 104.006 12.6582C103.495 12.9772 102.908 13.1367 102.242 13.1367C101.24 13.1367 100.426 12.7881 99.8018 12.0908C99.182 11.3936 98.8721 10.4707 98.8721 9.32227V9.2334ZM100.144 9.38379C100.144 10.2041 100.333 10.8626 100.711 11.3594C101.094 11.8561 101.604 12.1045 102.242 12.1045C102.885 12.1045 103.395 11.8538 103.773 11.3525C104.152 10.8467 104.341 10.1403 104.341 9.2334C104.341 8.4222 104.147 7.76595 103.76 7.26465C103.377 6.75879 102.867 6.50586 102.229 6.50586C101.604 6.50586 101.101 6.75423 100.718 7.25098C100.335 7.74772 100.144 8.45866 100.144 9.38379ZM110.767 6.73828C110.575 6.70638 110.368 6.69043 110.145 6.69043C109.315 6.69043 108.752 7.04362 108.456 7.75V13H107.191V5.60352H108.422L108.442 6.45801C108.857 5.7972 109.445 5.4668 110.206 5.4668C110.452 5.4668 110.639 5.4987 110.767 5.5625V6.73828ZM113.125 5.60352L113.159 6.42383C113.701 5.78581 114.433 5.4668 115.354 5.4668C116.388 5.4668 117.092 5.86328 117.466 6.65625C117.712 6.30078 118.031 6.01367 118.423 5.79492C118.819 5.57617 119.286 5.4668 119.824 5.4668C121.447 5.4668 122.271 6.32585 122.299 8.04395V13H121.034V8.11914C121.034 7.59049 120.913 7.19629 120.672 6.93652C120.43 6.6722 120.025 6.54004 119.455 6.54004C118.986 6.54004 118.596 6.68132 118.286 6.96387C117.976 7.24186 117.796 7.61784 117.746 8.0918V13H116.475V8.15332C116.475 7.0778 115.948 6.54004 114.896 6.54004C114.066 6.54004 113.499 6.89323 113.193 7.59961V13H111.929V5.60352H113.125ZM128.779 12.2686C128.287 12.8473 127.565 13.1367 126.612 13.1367C125.824 13.1367 125.222 12.9089 124.808 12.4531C124.397 11.9928 124.19 11.3138 124.186 10.416V5.60352H125.45V10.3818C125.45 11.5029 125.906 12.0635 126.817 12.0635C127.784 12.0635 128.426 11.7035 128.745 10.9834V5.60352H130.01V13H128.807L128.779 12.2686ZM133.312 13H132.047V2.5H133.312V13ZM139.908 13C139.835 12.8542 139.776 12.5944 139.73 12.2207C139.143 12.8314 138.441 13.1367 137.625 13.1367C136.896 13.1367 136.297 12.9316 135.827 12.5215C135.362 12.1068 135.13 11.5827 135.13 10.9492C135.13 10.179 135.422 9.58203 136.005 9.1582C136.593 8.72982 137.418 8.51562 138.479 8.51562H139.71V7.93457C139.71 7.49251 139.578 7.1416 139.313 6.88184C139.049 6.61751 138.66 6.48535 138.145 6.48535C137.693 6.48535 137.315 6.59928 137.01 6.82715C136.704 7.05501 136.552 7.33073 136.552 7.6543H135.28C135.28 7.28516 135.41 6.92969 135.67 6.58789C135.934 6.24154 136.29 5.9681 136.736 5.76758C137.188 5.56706 137.682 5.4668 138.22 5.4668C139.072 5.4668 139.74 5.68099 140.223 6.10938C140.706 6.5332 140.956 7.11882 140.975 7.86621V11.2705C140.975 11.9495 141.061 12.4896 141.234 12.8906V13H139.908ZM137.81 12.0361C138.206 12.0361 138.582 11.9336 138.938 11.7285C139.293 11.5234 139.55 11.2568 139.71 10.9287V9.41113H138.719C137.169 9.41113 136.395 9.86458 136.395 10.7715C136.395 11.168 136.527 11.4779 136.791 11.7012C137.055 11.9245 137.395 12.0361 137.81 12.0361Z" fill="#9E9E9E"/>
<path d="M7 1C3.14005 1 0 4.14005 0 8C0 11.86 3.14005 15 7 15C10.86 15 14 11.86 14 8C14 4.14005 10.86 1 7 1ZM10.0625 8.5833H7.5833V11.0625C7.5833 11.3845 7.32204 11.6458 7 11.6458C6.67796 11.6458 6.4167 11.3845 6.4167 11.0625V8.5833H3.9375C3.61546 8.5833 3.3542 8.32204 3.3542 8C3.3542 7.67796 3.61546 7.4167 3.9375 7.4167H6.4167V4.9375C6.4167 4.61546 6.67796 4.3542 7 4.3542C7.32204 4.3542 7.5833 4.61546 7.5833 4.9375V7.4167H10.0625C10.3845 7.4167 10.6458 7.67796 10.6458 8C10.6458 8.32204 10.3845 8.5833 10.0625 8.5833Z" fill="#9E9E9E"/>
</svg>
