<svg width="12" height="12" viewBox="0 0 12 12" fill="none" xmlns="http://www.w3.org/2000/svg">
<path d="M11.1955 2.98823C10.6589 2.06902 9.93115 1.34122 9.01191 0.804692C8.09251 0.268194 7.08885 0 6.00018 0C4.91161 0 3.90766 0.268194 2.98842 0.804692C2.06913 1.34114 1.34133 2.06893 0.804774 2.98823C0.268194 3.90757 0 4.91153 0 6.00001C0 7.08855 0.268276 8.09234 0.804692 9.01175C1.34122 9.93096 2.06902 10.6588 2.98831 11.1953C3.90766 11.7318 4.91153 12 6.00007 12C7.08861 12 8.09259 11.7318 9.01188 11.1953C9.93112 10.6589 10.6589 9.93096 11.1954 9.01175C11.7318 8.09243 12 7.0885 12 6.00001C12 4.91142 11.7318 3.90744 11.1955 2.98823ZM9.50019 6.50001C9.50019 6.6354 9.45064 6.75274 9.35166 6.85155C9.25277 6.95045 9.13554 7.00008 9.00012 7.00008H3.00002C2.86462 7.00008 2.74748 6.95047 2.64848 6.85155C2.54953 6.75277 2.50005 6.63543 2.50005 6.50001V5.49994C2.50005 5.36454 2.54956 5.24734 2.64848 5.14839C2.74745 5.04942 2.8646 4.99992 3.00002 4.99992H9.00012C9.13551 4.99992 9.25274 5.04942 9.35166 5.14839C9.45064 5.24731 9.50019 5.36451 9.50019 5.49994V6.50001Z" fill="black"/>
</svg>
