<svg width="13" height="13" viewBox="0 0 13 13" fill="none" xmlns="http://www.w3.org/2000/svg">
    <path d="M9.29104 8.17611H8.70013L8.49571 7.9717C9.22414 7.12809 9.66265 6.03173 9.66265 4.83134C9.66265 2.16295 7.4997 0 4.83134 0C2.16299 0 0 2.16295 0 4.83134C0 7.49974 2.16295 9.66269 4.83134 9.66269C6.03173 9.66269 7.12809 9.22414 7.9717 8.49944L8.17611 8.70385V9.29104L11.8925 13L13 11.8925L9.29104 8.17611ZM4.83134 8.17611C2.9843 8.17611 1.48658 6.67839 1.48658 4.83134C1.48658 2.9843 2.9843 1.48658 4.83134 1.48658C6.67839 1.48658 8.17611 2.9843 8.17611 4.83134C8.17611 6.67839 6.67839 8.17611 4.83134 8.17611Z" fill="white"/>
</svg>
