<svg width="22" height="17" viewBox="0 0 22 17" fill="none" xmlns="http://www.w3.org/2000/svg">
<path d="M10.923 14.0825C11.4406 14.0825 11.8601 13.6721 11.8601 13.166C11.8601 12.6598 11.4406 12.2495 10.923 12.2495C10.4055 12.2495 9.98596 12.6598 9.98596 13.166C9.98596 13.6721 10.4055 14.0825 10.923 14.0825Z" fill="#E8AC55"/>
<path d="M10.797 10.7876C11.0819 10.7876 11.313 10.5615 11.313 10.2829V5.48855C11.313 5.20998 11.0819 4.98389 10.797 4.98389C10.5122 4.98389 10.281 5.20998 10.281 5.48855V10.2829C10.281 10.5615 10.5122 10.7876 10.797 10.7876Z" fill="#E8AC55"/>
<path d="M12.8039 1.50063L12.7804 1.46505C12.3026 0.74489 11.8088 -5.29418e-08 10.9231 -5.29418e-08C9.99991 -5.29418e-08 9.51693 0.755488 9.04994 1.4865C9.04761 1.49003 9.03316 1.51274 9.03084 1.51653L0.8603 15.057C0.813343 15.1347 0.788574 15.1754 0.788574 15.2655C0.788574 16.2485 1.59742 17 2.59152 17H19.2549C20.2492 17 21.0578 16.2483 21.0578 15.2655C21.0578 15.1754 21.033 15.1105 20.9863 15.0331L12.8039 1.50063ZM19.2549 15.9907H2.59152C2.21457 15.9907 1.89052 15.7507 1.8304 15.3866L9.92509 1.99748C10.326 1.36992 10.5887 0.997477 10.9231 0.997477C11.2484 0.997477 11.557 1.46934 11.9146 2.00833L20.0157 15.3838C19.9559 15.7477 19.6318 15.9907 19.2549 15.9907Z" fill="#E8AC55"/>
</svg>
