<svg width="24" height="31" viewBox="0 0 24 31" fill="none" xmlns="http://www.w3.org/2000/svg">
<path d="M17.0149 0H0.816558C0.365581 0 0 0.362589 0 1.06618V30.4464C0 30.6374 0.365581 31 0.816558 31H23.1834C23.6344 31 24 30.6374 24 30.4464V7.18425C24 6.79896 23.9481 6.67496 23.8566 6.58362L17.362 0.142268C17.27 0.0514821 17.1449 0 17.0149 0Z" fill="#E9E9E0"/>
<path d="M23.1834 9.41071H0.816558C0.365581 9.41071 0 9.04812 0 8.60084V0H24V8.60084C24 9.04812 23.6344 9.41071 23.1834 9.41071Z" transform="translate(0 21.5894)" fill="#659C35"/>
<path d="M0 -3.82747e-09V6.55927H6.61339L0 -3.82747e-09Z" transform="translate(17.3037 0.0834961)" fill="#D9D7CA"/>
<path d="M0.915907 5.57779H2.42721e-07V-1.18256e-07H1.61749C1.85637 -1.18256e-07 2.09302 0.0376438 2.32688 0.113483C2.56074 0.189322 2.77061 0.302803 2.95647 0.453928C3.14233 0.605053 3.29246 0.788286 3.40688 1.00252C3.5213 1.21675 3.57879 1.45755 3.57879 1.72548C3.57879 2.00836 3.53023 2.26411 3.43367 2.49384C3.33712 2.72357 3.20205 2.91677 3.02902 3.07287C2.856 3.22898 2.64726 3.35021 2.40335 3.43602C2.15944 3.52182 1.8893 3.56445 1.5946 3.56445H0.915349V5.57779H0.915907ZM0.915907 0.688642V2.8985H1.75535C1.86698 2.8985 1.97749 2.87968 2.08744 2.84148C2.19684 2.80384 2.2973 2.74184 2.38884 2.65604C2.48037 2.57023 2.55405 2.45066 2.60986 2.29677C2.66567 2.14288 2.69358 1.95245 2.69358 1.72548C2.69358 1.6347 2.68074 1.52952 2.65563 1.41161C2.62995 1.29314 2.57805 1.17966 2.49935 1.07116C2.42009 0.962661 2.30958 0.871875 2.16726 0.798804C2.02493 0.725732 1.83628 0.689196 1.60242 0.689196H0.915907V0.688642Z" transform="translate(5.15625 23.7627)" fill="white"/>
<path d="M4.06716 -1.18256e-07V5.57779H3.13619L0.930977 1.73323V5.57779H-3.74727e-07V-1.18256e-07H0.930977L3.13619 3.84455V-1.18256e-07H4.06716Z" transform="translate(9.7793 23.7627)" fill="white"/>
<path d="M4.19665 2.79277V4.94948C4.07944 5.09618 3.94884 5.2152 3.80372 5.30875C3.65861 5.4023 3.50623 5.47925 3.34605 5.53959C3.18586 5.59993 3.02009 5.64311 2.84986 5.66857C2.67907 5.69404 2.51051 5.70621 2.34251 5.70621C2.00651 5.70621 1.69786 5.64588 1.41544 5.52464C1.13302 5.40341 0.886326 5.22461 0.67535 4.98713C0.464373 4.74964 0.298606 4.45237 0.179164 4.09421C0.0597219 3.73605 -6.47256e-07 3.32198 -6.47256e-07 2.85311C-6.47256e-07 2.38423 0.0597219 1.97127 0.179164 1.61588C0.298606 1.25993 0.463815 0.963769 0.67535 0.72684C0.886326 0.489358 1.13414 0.309447 1.41935 0.185447C1.704 0.0614471 2.01209 -9.29151e-07 2.34251 -9.29151e-07C2.64781 -9.29151e-07 2.93246 0.0503755 3.19702 0.151126C3.46158 0.252429 3.69767 0.403554 3.90642 0.605054L3.27293 1.16527C3.1507 1.01857 3.0106 0.912839 2.85321 0.847518C2.69525 0.782197 2.53284 0.748982 2.36484 0.748982C2.17674 0.748982 1.99702 0.783858 1.82679 0.854715C1.656 0.925572 1.50363 1.04514 1.36912 1.21398C1.23405 1.38337 1.12856 1.60093 1.05265 1.86886C0.976744 2.13679 0.935441 2.46395 0.930418 2.85255C0.935441 3.2312 0.97507 3.55891 1.04874 3.83625C1.12242 4.11359 1.224 4.34055 1.35405 4.51714C1.48409 4.69373 1.63144 4.82493 1.79665 4.91073C1.96186 4.99654 2.136 5.03916 2.31963 5.03916C2.37544 5.03916 2.45023 5.03528 2.54456 5.02753C2.63833 5.01978 2.73265 5.00761 2.82698 4.98989C2.92074 4.97218 3.01116 4.94838 3.09768 4.91793C3.18419 4.88748 3.24781 4.84486 3.28856 4.7895V3.41221H2.3347V2.79166H4.19665V2.79277Z" transform="translate(15.1475 23.6714)" fill="white"/>
<path d="M2.55014 5.05854C3.95854 5.05854 5.10028 3.92614 5.10028 2.52927C5.10028 1.13239 3.95854 0 2.55014 0C1.14174 0 0 1.13239 0 2.52927C0 3.92614 1.14174 5.05854 2.55014 5.05854Z" transform="translate(4.38867 5.45996)" fill="#F3D55B"/>
<path d="M0 11.3482H6.13953H24V5.25893L18.4186 0L12.5581 6.36607L9.49786 3.33084L0 11.3482Z" transform="translate(0 10.2412)" fill="#88C057"/>
</svg>
