<svg width="20" height="13" viewBox="0 0 20 13" fill="none" xmlns="http://www.w3.org/2000/svg">
<path d="M19.128 0.907959H1.37879C0.964372 0.907959 0.628418 1.24391 0.628418 1.65833C0.628418 2.07275 0.964373 2.40871 1.37879 2.40871H19.128C19.5425 2.40871 19.8784 2.07275 19.8784 1.65833C19.8784 1.24391 19.5425 0.907959 19.128 0.907959Z" fill="white"/>
<path d="M19.128 6.16089H1.37879C0.964372 6.16089 0.628418 6.49684 0.628418 6.91126C0.628418 7.32568 0.964373 7.66164 1.37879 7.66164H19.128C19.5425 7.66164 19.8784 7.32568 19.8784 6.91126C19.8784 6.49684 19.5425 6.16089 19.128 6.16089Z" fill="white"/>
<path d="M19.128 11.4135H1.37879C0.964372 11.4135 0.628418 11.7494 0.628418 12.1638C0.628418 12.5782 0.964373 12.9142 1.37879 12.9142H19.128C19.5425 12.9142 19.8784 12.5782 19.8784 12.1638C19.8784 11.7494 19.5425 11.4135 19.128 11.4135Z" fill="white"/>
</svg>
