<?xml version="1.0" encoding="utf-8"?>
<!-- Generator: Adobe Illustrator 22.1.0, SVG Export Plug-In . SVG Version: 6.00 Build 0)  -->
<svg width="7" height="7" viewBox="0 0 7 7" fill="none" xmlns="http://www.w3.org/2000/svg">
<path d="M6.40124 6.99774C6.24801 6.99774 6.09503 6.93932 5.97795 6.82248L0.177385 1.02168C-0.0565242 0.787768 -0.0565242 0.409012 0.177385 0.175342C0.411294 -0.0583277 0.79005 -0.0585671 1.02372 0.175342L6.82453 5.97615C7.05844 6.21006 7.05844 6.58881 6.82453 6.82248C6.70745 6.93932 6.55447 6.99774 6.40124 6.99774Z" fill="#333333"/>
<path d="M0.598719 6.99783C0.445493 6.99783 0.292506 6.93941 0.175432 6.82257C-0.0584773 6.58866 -0.0584773 6.20991 0.175432 5.97624L5.97624 0.175432C6.21015 -0.0584773 6.5889 -0.0584773 6.82257 0.175432C7.05624 0.409341 7.05648 0.788098 6.82257 1.02177L1.02201 6.82257C0.905172 6.93941 0.751946 6.99783 0.598719 6.99783Z" fill="#333333"/>
</svg>

