<svg width="8" height="8" viewBox="0 0 8 8" fill="none" xmlns="http://www.w3.org/2000/svg">
<g clip-path="url(#clip0)">
<path d="M6.33743 3.98633H5.79608C5.85126 4.1374 5.88141 4.30044 5.88141 4.47037V6.51637C5.88141 6.58722 5.86908 6.65522 5.84664 6.71847H6.74162C7.07593 6.71847 7.34791 6.44648 7.34791 6.11217V4.9968C7.34792 4.43963 6.89462 3.98633 6.33743 3.98633Z" fill="#7791A8"/>
<path d="M1.81442 4.47037C1.81442 4.30043 1.84456 4.1374 1.89974 3.98633H1.35839C0.801206 3.98633 0.3479 4.43963 0.3479 4.99682V6.11219C0.3479 6.44649 0.619876 6.71848 0.954195 6.71848H1.84918C1.82675 6.65521 1.81442 6.58721 1.81442 6.51637V4.47037Z" fill="#7791A8"/>
<path d="M4.46666 3.45996H3.22906C2.67187 3.45996 2.21857 3.91327 2.21857 4.47045V6.51645C2.21857 6.62806 2.30905 6.71855 2.42066 6.71855H5.27505C5.38667 6.71855 5.47715 6.62807 5.47715 6.51645V4.47045C5.47715 3.91327 5.02385 3.45996 4.46666 3.45996Z" fill="#7791A8"/>
<path d="M3.84793 0.78125C3.17784 0.78125 2.63269 1.3264 2.63269 1.9965C2.63269 2.45103 2.88356 2.84799 3.25404 3.0564C3.42976 3.15525 3.63235 3.21174 3.84793 3.21174C4.06351 3.21174 4.2661 3.15525 4.44182 3.0564C4.81232 2.84799 5.06317 2.45101 5.06317 1.9965C5.06317 1.32642 4.51802 0.78125 3.84793 0.78125Z" fill="#7791A8"/>
<path d="M1.71395 1.91406C1.21281 1.91406 0.805115 2.32176 0.805115 2.8229C0.805115 3.32405 1.21281 3.73174 1.71395 3.73174C1.84108 3.73174 1.96213 3.70541 2.07209 3.65808C2.26221 3.57622 2.41897 3.43133 2.51598 3.24983C2.58406 3.12245 2.62279 2.97713 2.62279 2.8229C2.62279 2.32177 2.2151 1.91406 1.71395 1.91406Z" fill="#7791A8"/>
<path d="M5.98184 1.91406C5.48069 1.91406 5.073 2.32176 5.073 2.8229C5.073 2.97715 5.11173 3.12247 5.17982 3.24983C5.27682 3.43134 5.43358 3.57624 5.6237 3.65808C5.73367 3.70541 5.85472 3.73174 5.98184 3.73174C6.48298 3.73174 6.89068 3.32405 6.89068 2.8229C6.89068 2.32176 6.48298 1.91406 5.98184 1.91406Z" fill="#7791A8"/>
</g>
<defs>
<clipPath id="clip0">
<rect width="7" height="7" fill="white" transform="translate(0.3479 0.25)"/>
</clipPath>
</defs>
</svg>
