<svg width="16" height="19" viewBox="0 0 16 19" fill="none" xmlns="http://www.w3.org/2000/svg">
<path d="M2.13029 2.16799H5.03295C5.17775 0.949579 6.24602 0 7.53984 0C8.83361 0 9.90173 0.949542 10.0465 2.16799H12.9493C14.124 2.16799 15.0796 3.09551 15.0796 4.23537V4.34145C15.0796 5.21252 14.5207 5.95809 13.7333 6.26187V16.0281C13.7333 17.168 12.7776 18.0955 11.603 18.0955H3.4766C2.30195 18.0955 1.34635 17.1679 1.34635 16.0281V6.26191C0.559014 5.95809 4.3869e-05 5.21252 4.3869e-05 4.34149V4.23541C4.3869e-05 3.09551 0.955679 2.16799 2.13029 2.16799ZM7.53984 0.980449C6.80398 0.980449 6.18978 1.49226 6.05387 2.16799H9.02553C8.88966 1.49222 8.27542 0.980449 7.53984 0.980449ZM2.35672 16.0281C2.35672 16.6274 2.85922 17.115 3.47663 17.115H11.603C12.2205 17.115 12.723 16.6274 12.723 16.0281V6.40883H2.35672V16.0281ZM1.01041 4.34145C1.01041 4.94077 1.51291 5.42842 2.13033 5.42842H12.9493C13.5668 5.42842 14.0693 4.94077 14.0693 4.34145V4.23537C14.0693 3.63605 13.5668 3.1484 12.9493 3.1484H2.13029C1.51287 3.1484 1.01038 3.63605 1.01038 4.23537V4.34145H1.01041Z" fill="#5780A6"/>
<path d="M10.2456 15.8606C9.96656 15.8606 9.7404 15.6411 9.7404 15.3704V9.85082C9.7404 9.58016 9.9666 9.36058 10.2456 9.36058C10.5245 9.36058 10.7507 9.58016 10.7507 9.85082V15.3704C10.7508 15.6411 10.5246 15.8606 10.2456 15.8606Z" fill="#5780A6"/>
<path d="M7.53927 15.8606C7.26027 15.8606 7.03406 15.6411 7.03406 15.3704V9.85082C7.03406 9.58016 7.26034 9.36058 7.53927 9.36058C7.81823 9.36058 8.04443 9.58016 8.04443 9.85082V15.3704C8.04443 15.6411 7.81827 15.8606 7.53927 15.8606Z" fill="#5780A6"/>
<path d="M4.83464 15.8606C4.55568 15.8606 4.32951 15.6411 4.32951 15.3704V9.85082C4.32951 9.58016 4.55571 9.36058 4.83464 9.36058C5.11368 9.36058 5.33984 9.58016 5.33984 9.85082V15.3704C5.33988 15.6411 5.1136 15.8606 4.83464 15.8606Z" fill="#5780A6"/>
</svg>
