<svg width="17" height="14" viewBox="0 0 17 14" fill="none" xmlns="http://www.w3.org/2000/svg">
<path d="M8.34605 11.5973C8.77226 11.5973 9.11776 11.2593 9.11776 10.8425C9.11776 10.4257 8.77226 10.0878 8.34605 10.0878C7.91985 10.0878 7.57434 10.4257 7.57434 10.8425C7.57434 11.2593 7.91985 11.5973 8.34605 11.5973Z" fill="#E0E0E0"/>
<path d="M8.24221 8.884C8.47679 8.884 8.66716 8.6978 8.66716 8.46839V4.5201C8.66716 4.29069 8.47679 4.10449 8.24221 4.10449C8.00764 4.10449 7.81726 4.29069 7.81726 4.5201V8.46839C7.81726 8.6978 8.00764 8.884 8.24221 8.884Z" fill="#E0E0E0"/>
<path d="M9.895 1.23581L9.87566 1.20651C9.48215 0.613439 9.07548 -4.35991e-08 8.34605 -4.35991e-08C7.58581 -4.35991e-08 7.18805 0.622167 6.80347 1.22418C6.80156 1.22709 6.78966 1.24579 6.78775 1.24891L0.0590683 12.3999C0.0203977 12.4639 0 12.4974 0 12.5716C0 13.3812 0.666111 14 1.48478 14H15.2075C16.0264 14 16.6923 13.3809 16.6923 12.5716C16.6923 12.4974 16.6719 12.444 16.6335 12.3802L9.895 1.23581ZM15.2075 13.1688H1.48478C1.17435 13.1688 0.907484 12.9712 0.857977 12.6713L7.52419 1.64498C7.85438 1.12817 8.07068 0.821451 8.34605 0.821451C8.61398 0.821451 8.8681 1.21005 9.16259 1.65392L15.8341 12.669C15.7848 12.9687 15.518 13.1688 15.2075 13.1688Z" fill="#E0E0E0"/>
</svg>
