<svg width="12" height="15" viewBox="0 0 12 15" fill="none" xmlns="http://www.w3.org/2000/svg">
<g clip-path="url(#clip0)">
<path d="M5.56633 6.43463L0.179651 11.3724C-0.0598834 11.5921 -0.0598834 11.9482 0.179651 12.1678L0.613501 12.5655C0.853191 12.7851 1.24178 12.7851 1.48116 12.5655L6.00007 8.42333L10.5183 12.5655C10.7582 12.7851 11.147 12.7851 11.3863 12.5655L11.8202 12.1678C12.06 11.9482 12.06 11.5921 11.8202 11.3724L6.43345 6.43463C6.19399 6.21485 5.80587 6.21485 5.56633 6.43463Z" fill="#EDEDED"/>
</g>
<g clip-path="url(#clip1)">
<path d="M5.56633 2.2133L0.179651 6.70214C-0.0598834 6.90188 -0.0598834 7.22561 0.179651 7.42526L0.613501 7.7868C0.853191 7.98641 1.24178 7.98641 1.48116 7.7868L6.00007 4.02121L10.5183 7.7868C10.7582 7.98641 11.147 7.98641 11.3863 7.7868L11.8202 7.42526C12.06 7.22561 12.06 6.90188 11.8202 6.70214L6.43345 2.2133C6.19399 2.01349 5.80587 2.01349 5.56633 2.2133Z" fill="#EDEDED"/>
</g>
<defs>
<clipPath id="clip0">
<rect y="15" width="11" height="12" transform="rotate(-90 0 15)" fill="white"/>
</clipPath>
<clipPath id="clip1">
<rect y="10" width="10" height="12" transform="rotate(-90 0 10)" fill="white"/>
</clipPath>
</defs>
</svg>
