<svg width="17" height="20" viewBox="0 0 17 20" fill="none" xmlns="http://www.w3.org/2000/svg">
<path d="M14.8139 0H4.15435C3.37554 0 2.74185 0.633799 2.74185 1.41275V3.10845H1.41249C0.633685 3.10845 7.38959e-09 3.74217 7.38959e-09 4.5212V18.5873C7.38959e-09 19.3662 0.633685 20 1.41249 20H12.072C12.8508 20 13.4845 19.3662 13.4845 18.5873V16.8916H14.8139C15.5927 16.8916 16.2264 16.2578 16.2264 15.4789V1.41275C16.2264 0.633799 15.5928 0 14.8139 0ZM12.2738 18.5873C12.2738 18.6966 12.1814 18.7891 12.072 18.7891H1.41249C1.30313 18.7891 1.21071 18.6966 1.21071 18.5873V4.5212C1.21071 4.41173 1.30313 4.31938 1.41249 4.31938H12.072C12.1814 4.31938 12.2738 4.41173 12.2738 4.5212V18.5873ZM15.0157 15.4789C15.0157 15.5883 14.9233 15.6807 14.8139 15.6807H13.4845V4.5212C13.4845 3.74217 12.8508 3.10845 12.072 3.10845H3.95256V1.41275C3.95256 1.30336 4.0449 1.21093 4.15435 1.21093H14.8139C14.9233 1.21093 15.0157 1.30336 15.0157 1.41275V15.4789Z" fill="#5780A6"/>
<path d="M10.186 6.22586H3.29847C2.96407 6.22586 2.69312 6.49687 2.69312 6.83132C2.69312 7.16578 2.96407 7.43679 3.29847 7.43679H10.186C10.5204 7.43679 10.7914 7.16578 10.7914 6.83132C10.7914 6.49695 10.5204 6.22586 10.186 6.22586Z" fill="#5780A6"/>
<path d="M10.186 8.95264H3.29847C2.96407 8.95264 2.69312 9.22364 2.69312 9.5581C2.69312 9.89256 2.96407 10.1636 3.29847 10.1636H10.186C10.5204 10.1636 10.7914 9.89256 10.7914 9.5581C10.7914 9.22364 10.5204 8.95264 10.186 8.95264Z" fill="#5780A6"/>
<path d="M10.186 11.6795H3.29847C2.96407 11.6795 2.69312 11.9505 2.69312 12.2849C2.69312 12.6194 2.96407 12.8904 3.29847 12.8904H10.186C10.5204 12.8904 10.7914 12.6194 10.7914 12.2849C10.7914 11.9505 10.5204 11.6795 10.186 11.6795Z" fill="#5780A6"/>
<path d="M10.186 14.4062H3.29847C2.96407 14.4062 2.69312 14.6772 2.69312 15.0117C2.69312 15.3462 2.96407 15.6172 3.29847 15.6172H10.186C10.5204 15.6172 10.7914 15.3462 10.7914 15.0117C10.7914 14.6773 10.5204 14.4062 10.186 14.4062Z" fill="#5780A6"/>
</svg>
