<svg width="18" height="18" viewBox="0 0 18 18" fill="none" xmlns="http://www.w3.org/2000/svg">
<path d="M15.5369 2.46288C15.6895 2.61549 15.6895 2.86358 15.5369 3.01619L10.0587 8.49443C9.90606 8.64704 9.65796 8.64704 9.50535 8.49443C9.42945 8.41772 9.39108 8.31757 9.39108 8.21739C9.39108 8.1172 9.42941 8.01705 9.50535 7.94111L14.9836 2.46288C15.1362 2.31027 15.3843 2.31027 15.5369 2.46288Z" fill="#5780A6"/>
<path d="M15.6523 2.73921V7.43486C15.6523 7.65086 15.477 7.82617 15.261 7.82617C15.045 7.82617 14.8697 7.65086 14.8697 7.43486V2.73921C14.8697 2.52321 15.0451 2.34789 15.2611 2.34789C15.4771 2.34789 15.6523 2.52321 15.6523 2.73921Z" fill="#5780A6"/>
<path d="M8.49394 9.50633C8.64655 9.65893 8.64655 9.90703 8.49394 10.0596L3.0157 15.5379C2.86309 15.6905 2.61499 15.6905 2.46238 15.5379C2.38648 15.4612 2.34811 15.361 2.34811 15.2608C2.34811 15.1607 2.38644 15.0605 2.46238 14.9846L7.94063 9.50633C8.09323 9.35372 8.34133 9.35372 8.49394 9.50633Z" fill="#5780A6"/>
<path d="M7.82617 15.261C7.82617 15.477 7.65086 15.6523 7.43486 15.6523H2.7392C2.5232 15.6523 2.34789 15.477 2.34789 15.261C2.34789 15.045 2.5232 14.8697 2.7392 14.8697H7.43486C7.65086 14.8697 7.82617 15.045 7.82617 15.261Z" fill="#5780A6"/>
<path d="M3.13086 10.5654L3.13086 15.261C3.13086 15.477 2.95554 15.6523 2.73954 15.6523C2.52354 15.6523 2.34823 15.477 2.34823 15.261L2.34823 10.5654C2.34823 10.3494 2.52354 10.1741 2.73954 10.1741C2.95554 10.1741 3.13086 10.3494 3.13086 10.5654Z" fill="#5780A6"/>
<path d="M18 1.17391V16.8261C18 17.4733 17.4733 18 16.8261 18H1.17391C0.526682 18 0 17.4733 0 16.8261V1.17391C0 0.526682 0.526682 0 1.17391 0H16.8261C17.4733 0 18 0.52672 18 1.17391ZM1.17391 0.782631C0.958683 0.782631 0.782595 0.958719 0.782595 1.17395V16.8261C0.782595 17.0413 0.958683 17.2174 1.17391 17.2174H16.8261C17.0413 17.2174 17.2174 17.0413 17.2174 16.8261V1.17391C17.2174 0.958683 17.0413 0.782595 16.8261 0.782595H1.17391V0.782631Z" fill="#5780A6"/>
<path d="M15.6523 2.73906C15.6523 2.95505 15.477 3.13037 15.261 3.13037L10.5654 3.13037C10.3494 3.13037 10.1741 2.95505 10.1741 2.73906C10.1741 2.52306 10.3494 2.34774 10.5654 2.34774L15.261 2.34774C15.477 2.34774 15.6523 2.52306 15.6523 2.73906Z" fill="#5780A6"/>
</svg>
