<svg width="22" height="17" viewBox="0 0 22 17" fill="none" xmlns="http://www.w3.org/2000/svg">
<path d="M10.9234 14.0823C11.4409 14.0823 11.8605 13.672 11.8605 13.1658C11.8605 12.6597 11.4409 12.2494 10.9234 12.2494C10.4059 12.2494 9.98633 12.6597 9.98633 13.1658C9.98633 13.672 10.4059 14.0823 10.9234 14.0823Z" fill="#5EB591"/>
<path d="M10.7973 10.7876C11.0821 10.7876 11.3133 10.5615 11.3133 10.2829V5.48857C11.3133 5.21 11.0821 4.98391 10.7973 4.98391C10.5124 4.98391 10.2812 5.21 10.2812 5.48857V10.2829C10.2812 10.5615 10.5124 10.7876 10.7973 10.7876Z" fill="#5EB591"/>
<path d="M12.8044 1.50054L12.7809 1.46496C12.3031 0.744799 11.8093 -9.16057e-05 10.9235 -9.16057e-05C10.0004 -9.16057e-05 9.51742 0.755397 9.05042 1.48641C9.0481 1.48994 9.03365 1.51265 9.03133 1.51644L0.860788 15.0569C0.813831 15.1347 0.789062 15.1753 0.789062 15.2654C0.789062 16.2485 1.59791 16.9999 2.59201 16.9999H19.2553C20.2497 16.9999 21.0583 16.2482 21.0583 15.2654C21.0583 15.1753 21.0335 15.1104 20.9868 15.033L12.8044 1.50054ZM19.2553 15.9906H2.59201C2.21506 15.9906 1.89101 15.7506 1.83089 15.3865L9.92558 1.99739C10.3265 1.36983 10.5892 0.997385 10.9235 0.997385C11.2489 0.997385 11.5575 1.46925 11.9151 2.00824L20.0162 15.3837C19.9564 15.7476 19.6323 15.9906 19.2553 15.9906Z" fill="#5EB591"/>
</svg>
