<svg width="30" height="30" viewBox="0 0 30 30" fill="none" xmlns="http://www.w3.org/2000/svg">
<path d="M15.5271 19.8568H14.4317C14.1031 19.8568 13.884 20.0735 13.884 20.3985V21.4818C13.884 21.8068 14.1031 22.0235 14.4317 22.0235H15.5271C15.8557 22.0235 16.0748 21.8068 16.0748 21.4818V20.3985C16.0748 20.0735 15.8557 19.8568 15.5271 19.8568Z" fill="white"/>
<path d="M14.9796 7.94012C12.241 7.94012 10.05 10.1068 10.05 12.8151C10.05 13.086 10.05 13.3568 10.1048 13.6276C10.1596 13.9526 10.4882 14.1151 10.8169 14.0609L11.8576 13.7359C12.1314 13.6818 12.2957 13.411 12.241 13.1401C12.241 13.0318 12.241 12.9235 12.241 12.8151C12.241 11.2985 13.446 10.1068 14.9796 10.1068C16.5133 10.1068 17.7183 11.2985 17.7183 12.8151C17.7183 13.7359 17.1706 14.1693 16.1846 14.9818C15.2535 15.7401 14.158 16.6068 13.8842 18.1776C13.8294 18.5026 14.1033 18.7734 14.4319 18.7734H15.5274C15.8012 18.7734 16.0203 18.6109 16.0751 18.3401C16.2394 17.6901 16.7324 17.2568 17.554 16.6609C18.5947 15.8484 19.9092 14.8193 19.9092 12.8151C19.9092 10.1068 17.7183 7.94012 14.9796 7.94012Z" fill="white"/>
<circle cx="14.9786" cy="14.9818" r="14.1764" stroke="#545D6A"/>
</svg>
