<svg width="25" height="21" viewBox="0 0 25 21" fill="none" xmlns="http://www.w3.org/2000/svg">
<path d="M21.875 0H3.125C1.40152 0 0 1.17728 0 2.625V18.375C0 19.8227 1.40152 21 3.125 21H21.875C23.5985 21 25 19.8227 25 18.375V2.625C25 1.17728 23.5985 0 21.875 0ZM3.125 1.75H21.875C22.4495 1.75 22.9167 2.14243 22.9167 2.625V8.8252L19.4865 5.94385C19.0796 5.60226 18.4204 5.60226 18.0135 5.94385L10.6771 12.1064L8.02816 9.88135C7.62126 9.53976 6.96208 9.53976 6.55518 9.88135L2.08333 13.6377V2.625C2.08333 2.14243 2.55051 1.75 3.125 1.75ZM21.875 19.25H3.125C2.55051 19.25 2.08333 18.8576 2.08333 18.375V16.1123L7.29167 11.7373L13.326 16.8057C13.5297 16.9773 13.7957 17.0625 14.0625 17.0625C14.3293 17.0625 14.5953 16.9773 14.799 16.8062C15.2056 16.4644 15.2056 15.9106 14.799 15.5688L12.1501 13.3438L18.75 7.80023L22.9167 11.3002V18.375C22.9167 18.8576 22.4495 19.25 21.875 19.25Z" fill="#979797"/>
<path d="M8.33317 5.25C8.33317 6.21643 7.40035 7 6.24984 7C5.09932 7 4.1665 6.21643 4.1665 5.25C4.1665 4.28357 5.09932 3.5 6.24984 3.5C7.40035 3.5 8.33317 4.28357 8.33317 5.25Z" fill="#979797"/>
</svg>
