<svg width="18" height="18" viewBox="0 0 18 18" fill="none" xmlns="http://www.w3.org/2000/svg">
<g clip-path="url(#clip0)">
<path d="M11.5551 5.83398H5.78555C5.69085 5.83398 5.60219 5.85727 5.52197 5.89564L8.65665 9.03032L9.35923 8.35511C9.35923 8.35511 9.35929 8.35504 9.3593 8.35501C9.35931 8.35498 9.35937 8.35495 9.35937 8.35495L11.8188 5.8957C11.7385 5.85729 11.6498 5.83398 11.5551 5.83398Z" fill="#66B0D6"/>
<path d="M12.1088 6.18555L9.79443 8.49984L12.1088 10.8142C12.1471 10.734 12.1704 10.6453 12.1704 10.5506V6.44903C12.1704 6.35438 12.1472 6.26573 12.1088 6.18555Z" fill="#66B0D6"/>
<path d="M5.23207 6.18555C5.19369 6.26576 5.17041 6.35442 5.17041 6.44913V10.5507C5.17041 10.6453 5.19367 10.734 5.23202 10.8142L7.54643 8.49991L5.23207 6.18555Z" fill="#66B0D6"/>
<path d="M9.50394 8.79007L8.80126 9.46536C8.7612 9.50542 8.70873 9.52545 8.65627 9.52545C8.60381 9.52545 8.55132 9.50542 8.51128 9.46536L7.83594 8.79004L5.52148 11.1043C5.60171 11.1427 5.69043 11.1661 5.78516 11.1661H11.5547C11.6494 11.1661 11.7381 11.1428 11.8183 11.1044L9.50394 8.79007Z" fill="#66B0D6"/>
</g>
<g opacity="0.2" filter="url(#filter0_i)">
<path d="M6.89631 15.3085C10.6109 16.334 14.4535 14.1541 15.479 10.4395C16.5045 6.725 14.3246 2.88241 10.6101 1.85688C6.89552 0.831353 3.05292 3.01124 2.0274 6.72579C1.00187 10.4403 3.18176 14.2829 6.89631 15.3085Z" fill="url(#paint0_radial)"/>
<path d="M6.89631 15.3085C10.6109 16.334 14.4535 14.1541 15.479 10.4395C16.5045 6.725 14.3246 2.88241 10.6101 1.85688C6.89552 0.831353 3.05292 3.01124 2.0274 6.72579C1.00187 10.4403 3.18176 14.2829 6.89631 15.3085Z" fill="url(#paint1_linear)"/>
</g>
<defs>
<filter id="filter0_i" x="0.17041" y="0" width="17.1653" height="19.1653" filterUnits="userSpaceOnUse" color-interpolation-filters="sRGB">
<feFlood flood-opacity="0" result="BackgroundImageFix"/>
<feBlend mode="normal" in="SourceGraphic" in2="BackgroundImageFix" result="shape"/>
<feColorMatrix in="SourceAlpha" type="matrix" values="0 0 0 0 0 0 0 0 0 0 0 0 0 0 0 0 0 0 127 0" result="hardAlpha"/>
<feOffset dy="2"/>
<feGaussianBlur stdDeviation="1"/>
<feComposite in2="hardAlpha" operator="arithmetic" k2="-1" k3="1"/>
<feColorMatrix type="matrix" values="0 0 0 0 0 0 0 0 0 0 0 0 0 0 0 0 0 0 1 0"/>
<feBlend mode="normal" in2="shape" result="effect1_innerShadow"/>
</filter>
<radialGradient id="paint0_radial" cx="0" cy="0" r="1" gradientUnits="userSpaceOnUse" gradientTransform="translate(8.49049 8.73103) rotate(15.434) scale(6.85245)">
<stop stop-color="#C4C4C4"/>
<stop offset="0.1143" stop-color="#66B0D6"/>
<stop offset="0.2749" stop-color="#66B0D6"/>
<stop offset="0.4411" stop-color="#66B0D6"/>
<stop offset="0.613" stop-color="#66B0D6"/>
<stop offset="0.7942" stop-color="#66B0D6"/>
<stop offset="1" stop-color="#66B0D6"/>
</radialGradient>
<linearGradient id="paint1_linear" x1="10.6101" y1="1.85688" x2="6.89631" y2="15.3085" gradientUnits="userSpaceOnUse">
<stop stop-color="#445061"/>
<stop offset="1" stop-color="#37414F"/>
</linearGradient>
<clipPath id="clip0">
<rect x="5.17041" y="5" width="7" height="7" fill="white"/>
</clipPath>
</defs>
</svg>
