<svg width="22" height="20" viewBox="0 0 22 20" fill="none" xmlns="http://www.w3.org/2000/svg">
<path d="M20.396 19.171C20.2954 19.1709 20.1747 19.1312 20.0741 19.0915L16.2534 16.7541L6.19044 16.7403C5.84833 16.7398 5.58704 16.4825 5.5875 16.1466L5.60042 6.69906C5.60088 6.36309 5.86287 6.1065 6.20498 6.10697L20.4138 6.1264C20.756 6.12686 21.0173 6.38417 21.0168 6.72014L21.0006 18.5789C21.0003 18.7963 20.8792 18.9938 20.698 19.0924C20.5973 19.1516 20.4967 19.1712 20.396 19.171ZM6.79586 15.5552L16.4361 15.5684C16.5569 15.5686 16.6575 15.6083 16.758 15.6479L19.7945 17.51L19.8085 7.31145L6.80716 7.29367L6.79586 15.5552Z" fill="#66B0D6"/>
<path d="M16.7632 10.2137L9.61684 10.2039C9.26971 10.2034 9.00466 9.94239 9.00513 9.60154C9.00559 9.26068 9.2714 9.00036 9.61848 9.00084L16.7649 9.01061C17.112 9.01108 17.3771 9.27213 17.3766 9.61298C17.3761 9.95384 17.1104 10.2142 16.7632 10.2137Z" fill="#66B0D6"/>
<path d="M16.7589 13.2214L9.61252 13.2117C9.26539 13.2112 9.00034 12.9501 9.00081 12.6093C9.00128 12.2684 9.26708 12.0081 9.61416 12.0086L16.7606 12.0184C17.1077 12.0188 17.3727 12.2799 17.3723 12.6207C17.3718 12.9616 17.106 13.2219 16.7589 13.2214Z" fill="#66B0D6"/>
<circle cx="5.99456" cy="5.9826" r="4.75" transform="rotate(0.0783523 5.99456 5.9826)" fill="#37414F" stroke="#66B0D6" stroke-width="0.5"/>
<path d="M5.25126 5.65733L5.85282 5.65815C6.13928 5.65854 6.35161 5.58722 6.48983 5.44418C6.62805 5.30114 6.69732 5.11113 6.69764 4.87415C6.69796 4.64498 6.62919 4.4665 6.49134 4.33871C6.3561 4.21092 6.16869 4.14686 5.92911 4.14653C5.71296 4.14624 5.53189 4.20589 5.38589 4.32548C5.2399 4.44247 5.16677 4.59601 5.16651 4.78612L4.03761 4.78457C4.03801 4.4877 4.1178 4.22218 4.27698 3.98802C4.43876 3.75127 4.66297 3.56668 4.94961 3.43426C5.23885 3.30184 5.55665 3.23587 5.90301 3.23634C6.50457 3.23716 6.97572 3.38234 7.31647 3.67187C7.65723 3.95879 7.82726 4.35486 7.82657 4.86007C7.82621 5.12048 7.74646 5.35996 7.58731 5.57849C7.42815 5.79702 7.21959 5.96471 6.96162 6.08154C7.28177 6.19656 7.51982 6.36876 7.67575 6.59814C7.8343 6.82753 7.91335 7.09847 7.91292 7.41097C7.91223 7.91618 7.72678 8.32087 7.35658 8.62505C6.98897 8.92924 6.50179 9.08092 5.89502 9.08009C5.32731 9.07931 4.86267 8.92893 4.5011 8.62896C4.14213 8.32899 3.96299 7.93291 3.96366 7.44072L5.09257 7.44227C5.09227 7.65581 5.17146 7.8304 5.33013 7.96603C5.4914 8.10167 5.68923 8.16965 5.9236 8.16997C6.19183 8.17033 6.40156 8.10031 6.5528 7.95989C6.70664 7.81687 6.78372 7.62817 6.78404 7.3938C6.78482 6.82609 6.47271 6.54181 5.84771 6.54096L5.25005 6.54014L5.25126 5.65733Z" fill="#C4C4C4"/>
</svg>
