<svg width="32" height="19" viewBox="0 0 32 19" fill="none" xmlns="http://www.w3.org/2000/svg">
<path d="M22.6667 0H9.33325C4.18799 0 0 4.26151 0 9.49988C0 14.7385 4.18799 19 9.33325 19H22.6667C27.812 19 32 14.7385 32 9.49988C32 4.26151 27.812 0 22.6667 0V0ZM9.33325 14.9286C6.39209 14.9286 4 12.4938 4 9.49988C4 6.50621 6.39209 4.07141 9.33325 4.07141C12.2747 4.07141 14.6667 6.50621 14.6667 9.49988C14.6667 12.4938 12.2747 14.9286 9.33325 14.9286Z" fill="#37414F"/>
<path d="M22.6667 18.75L9.33325 18.75C4.33019 18.75 0.25 14.6046 0.250001 9.50012C0.250001 4.39541 4.3302 0.249998 9.33325 0.249998L22.6667 0.249999C27.6698 0.25 31.75 4.39541 31.75 9.50012C31.75 14.6046 27.6698 18.75 22.6667 18.75ZM28.25 9.50012C28.25 6.37233 25.7501 3.82141 22.6667 3.82141C19.5831 3.82141 17.0833 6.37232 17.0833 9.50012C17.0833 12.6277 19.5831 15.1786 22.6667 15.1786C25.7501 15.1786 28.25 12.6277 28.25 9.50012Z" fill="#F6F2EF" stroke="#BEC3CC" stroke-width="0.5"/>
</svg>
