<svg width="30" height="30" viewBox="0 0 30 30" fill="none" xmlns="http://www.w3.org/2000/svg">
<circle cx="14.6764" cy="14.9818" r="14.1764" stroke="#545D6A"/>
<g clip-path="url(#clip0)">
<path opacity="0.9" d="M16.5976 21.8457C16.3698 23.0562 15.3779 23.9707 14.192 23.9707C13.0063 23.9707 12.0143 23.0562 11.7864 21.8457H16.5976ZM14.192 8.38739C14.34 8.38739 14.486 8.3966 14.6301 8.41138C14.3518 9.05029 14.192 9.76078 14.192 10.5124C14.192 13.2465 16.2486 15.4707 18.7753 15.4707C18.778 15.4707 18.7806 15.47 18.7832 15.47C18.8218 16.8101 19.3725 18.0788 20.3245 18.9422C20.6526 19.2404 20.8031 19.6973 20.7154 20.1549C20.6022 20.7463 20.0764 21.1374 19.5185 21.1374H8.8623C8.33058 21.1374 7.82381 20.7832 7.68497 20.2286C7.5658 19.7518 7.71315 19.2631 8.04512 18.9564C9.04105 18.0455 9.60874 16.7223 9.60874 15.3205V13.3457C9.60874 10.6072 11.6608 8.38739 14.192 8.38739Z" fill="#EBECED"/>
</g>
<defs>
<clipPath id="clip0">
<rect x="7.61353" y="6.9707" width="15" height="17" fill="white"/>
</clipPath>
</defs>
</svg>
