<svg width="10" height="14" viewBox="0 0 10 14" fill="none" xmlns="http://www.w3.org/2000/svg">
<path d="M5.046 0.958741C2.43837 0.958741 0.332687 3.06442 0.332687 5.67205C0.332686 6.58125 0.623125 7.44941 1.02721 8.16285L4.09892 13.4791C4.29149 13.8264 4.67979 14 5.046 14C5.41224 14 5.78157 13.8264 5.99308 13.4791L9.06479 8.16601C9.47203 7.45251 9.75931 6.60013 9.75931 5.67515C9.75932 3.06758 7.65364 0.958742 5.046 0.958741ZM5.046 7.06426C4.09892 7.06426 3.32547 6.29081 3.32547 5.34373C3.32547 4.39665 4.09892 3.6232 5.046 3.6232C5.99308 3.6232 6.76653 4.39665 6.76653 5.34373C6.76653 6.29397 5.99308 7.06426 5.046 7.06426Z" fill="#FFFFFF"/>
</svg>
