<svg width="17" height="17" viewBox="0 0 17 17" fill="none" xmlns="http://www.w3.org/2000/svg">
<path d="M16.5 8.5C16.5 12.9183 12.9183 16.5 8.5 16.5C4.08172 16.5 0.5 12.9183 0.5 8.5C0.5 4.08172 4.08172 0.5 8.5 0.5C12.9183 0.5 16.5 4.08172 16.5 8.5Z" stroke="#5780A6"/>
<path d="M8.50081 13.1569C9.61179 13.1569 10.6563 12.7243 11.4418 11.9388C12.2273 11.1532 12.66 10.1086 12.66 8.99775C12.66 8.99768 12.66 8.99778 12.66 8.99771C12.66 7.88677 12.2274 6.8423 11.4418 6.05673C10.8832 5.49812 10.1822 5.11184 9.41464 4.93969C8.99806 4.84618 8.57197 4.81766 8.15089 4.85309L7.86519 3.84227L6.69529 5.04462L5.52539 6.24698L7.15161 6.65892L8.77783 7.07086L8.43342 5.85251C9.27759 5.83249 10.1035 6.15411 10.724 6.7746C11.9498 8.00042 11.9498 9.995 10.724 11.2208C9.49814 12.4466 7.50359 12.4466 6.2778 11.2208C5.35498 10.2981 5.09716 8.92959 5.62074 7.73462L4.6908 7.32714C4.35859 8.08535 4.26055 8.9184 4.4074 9.73604C4.5578 10.5735 4.95632 11.3351 5.5599 11.9387C6.34544 12.7243 7.3899 13.1569 8.50081 13.1569Z" fill="#5780A6"/>
</svg>
