<svg width="18" height="20" viewBox="0 0 18 20" fill="none" xmlns="http://www.w3.org/2000/svg">
<path d="M15.5 8C16.4092 6.69427 18 4.15552 18 2.91989C18 1.30739 16.8806 0 15.5 0C14.1194 0 13 1.30739 13 2.91989C13 4.15457 14.5904 6.69427 15.5 8ZM15.5 0.973297C16.1903 0.973297 16.75 1.62699 16.75 2.43324C16.75 3.23949 16.1903 3.89319 15.5 3.89319C14.8097 3.89319 14.25 3.23949 14.25 2.43324C14.25 1.62699 14.8097 0.973297 15.5 0.973297Z" fill="#66B0D6"/>
<path d="M3 19C4.02962 17.5761 6 14.5672 6 13.1916C6 11.4289 4.6569 10 3 10C1.3431 10 0 11.4289 0 13.1916C0 14.5682 1.97038 17.5767 3 19ZM3 11.4185C3.73633 11.4185 4.33333 12.0536 4.33333 12.837C4.33333 13.6204 3.73633 14.2555 3 14.2555C2.26367 14.2555 1.66667 13.6204 1.66667 12.837C1.66667 12.0536 2.26367 11.4185 3 11.4185Z" fill="#66B0D6"/>
<g clip-path="url(#clip0)">
<path d="M15.3988 9.74137H15.6919C15.8538 9.74137 15.985 9.61014 15.985 9.44827C15.985 9.28641 15.8538 9.15517 15.6919 9.15517H15.3988C15.237 9.15517 15.1057 9.28641 15.1057 9.44827C15.1057 9.61014 15.237 9.74137 15.3988 9.74137Z" fill="#66B0D6"/>
<path d="M11.5884 11.5H12.181C12.3429 11.5 12.4741 11.3688 12.4741 11.2069C12.4741 11.0451 12.3429 10.9138 12.181 10.9138H11.5836C11.5062 10.914 11.4319 10.945 11.3774 11C11.3229 11.0549 11.2924 11.1295 11.293 11.2069C11.294 11.3692 11.4261 11.5002 11.5884 11.5Z" fill="#66B0D6"/>
<path d="M14.8743 11.2069C14.8743 11.3688 15.0055 11.5 15.1674 11.5H15.7645C15.9263 11.5 16.0576 11.3688 16.0576 11.2069C16.0576 11.0451 15.9263 10.9138 15.7645 10.9138H15.1674C15.0055 10.9138 14.8743 11.0451 14.8743 11.2069Z" fill="#66B0D6"/>
<path d="M13.6071 9.74137H14.2043C14.3662 9.74137 14.4974 9.61014 14.4974 9.44827C14.4974 9.28641 14.3662 9.15517 14.2043 9.15517H13.6071C13.4451 9.15517 13.314 9.28641 13.314 9.44827C13.314 9.61014 13.4451 9.74137 13.6071 9.74137Z" fill="#66B0D6"/>
<path d="M5.78916 19.4138H5.19179C5.02992 19.4138 4.89868 19.5451 4.89868 19.7069C4.89868 19.8688 5.02992 20 5.19179 20H5.78916C5.95102 20 6.08226 19.8688 6.08226 19.7069C6.08226 19.5451 5.95102 19.4138 5.78916 19.4138Z" fill="#66B0D6"/>
<path d="M10.7274 10.8025C10.7478 10.8025 10.7682 10.8003 10.7881 10.796C10.9463 10.7627 11.0477 10.6076 11.0146 10.4493C11.0063 10.4092 11.0022 10.3685 11.002 10.3276C11.0019 10.2349 11.0238 10.1436 11.0658 10.0608C11.1393 9.91658 11.0819 9.74012 10.9375 9.6667C10.7932 9.59328 10.6168 9.65067 10.5433 9.79508C10.4218 10.0337 10.3858 10.3069 10.441 10.5689C10.4692 10.7046 10.5887 10.8022 10.7274 10.8025Z" fill="#66B0D6"/>
<path d="M13.3764 11.5H13.9737C14.1356 11.5 14.2668 11.3688 14.2668 11.2069C14.2668 11.0451 14.1356 10.9138 13.9737 10.9138H13.3764C13.2145 10.9138 13.0833 11.0451 13.0833 11.2069C13.0833 11.3688 13.2145 11.5 13.3764 11.5Z" fill="#66B0D6"/>
<path d="M11.8151 9.74137H12.4124C12.5743 9.74137 12.7055 9.61014 12.7055 9.44827C12.7055 9.28641 12.5743 9.15517 12.4124 9.15517H11.8151C11.6532 9.15517 11.522 9.28641 11.522 9.44827C11.522 9.61014 11.6532 9.74137 11.8151 9.74137Z" fill="#66B0D6"/>
<path d="M8.91879 14.8346C8.94198 14.8406 8.96602 14.8435 8.98992 14.8435C9.12445 14.8432 9.24152 14.7516 9.27401 14.6212C9.31194 14.4705 9.38335 14.3303 9.48296 14.2109C9.55338 14.1311 9.57484 14.0194 9.53935 13.9192C9.50386 13.8189 9.4167 13.7458 9.31179 13.728C9.20703 13.7104 9.1007 13.7509 9.03429 13.8339C8.87729 14.0213 8.7648 14.2417 8.7054 14.4788C8.68637 14.5543 8.69825 14.6343 8.73832 14.7009C8.77825 14.7678 8.84323 14.8159 8.91879 14.8346Z" fill="#66B0D6"/>
<path d="M14.7094 19.4015C14.6464 19.4098 14.583 19.414 14.5195 19.4138H14.1505C13.9885 19.4138 13.8574 19.5451 13.8574 19.7069C13.8574 19.8688 13.9885 20 14.1505 20H14.5195C14.6076 20 14.6958 19.9943 14.7832 19.983C14.9438 19.9622 15.0572 19.8153 15.0366 19.6547C15.0158 19.4941 14.8688 19.3808 14.7083 19.4015H14.7094Z" fill="#66B0D6"/>
<path d="M15.1176 15.9845C14.9237 15.9258 14.722 15.8962 14.5194 15.8966H14.4425C14.2807 15.8966 14.1494 16.0278 14.1494 16.1897C14.1494 16.3515 14.2807 16.4828 14.4425 16.4828H14.5194C14.6642 16.4828 14.8083 16.5041 14.947 16.546C14.9746 16.5546 15.0034 16.5589 15.0323 16.5589C15.1776 16.5591 15.3011 16.4527 15.3225 16.309C15.3439 16.1652 15.2567 16.0275 15.1176 15.9855V15.9845Z" fill="#66B0D6"/>
<path d="M14.4925 13.8449C14.6543 13.8449 14.7856 13.7136 14.7856 13.5518C14.7856 13.3899 14.6543 13.2587 14.4925 13.2587H13.8954C13.7335 13.2587 13.6023 13.3899 13.6023 13.5518C13.6023 13.7136 13.7335 13.8449 13.8954 13.8449H14.4925Z" fill="#66B0D6"/>
<path d="M16.244 18.4022C16.0966 18.3358 15.9231 18.4014 15.8566 18.5488C15.7883 18.7004 15.6946 18.8392 15.5797 18.9592C15.5044 19.0344 15.4758 19.1443 15.5048 19.2465C15.5339 19.3488 15.616 19.4274 15.7193 19.4517C15.8228 19.4762 15.9314 19.4427 16.0031 19.3643C16.1643 19.1963 16.2957 19.0018 16.3913 18.7895C16.4574 18.642 16.3916 18.4686 16.244 18.4022Z" fill="#66B0D6"/>
<path d="M17.779 12.4309C17.7045 12.4088 17.6242 12.4173 17.5558 12.4545C17.4875 12.4917 17.4367 12.5545 17.4147 12.6291C17.3716 12.7728 17.2929 12.9033 17.1858 13.0083C17.07 13.1217 17.068 13.3073 17.1814 13.4231C17.2947 13.5389 17.4803 13.5407 17.5961 13.4275C17.7747 13.2525 17.9058 13.0349 17.9771 12.7952C17.9993 12.7207 17.9907 12.6404 17.9536 12.572C17.9164 12.5037 17.8536 12.4529 17.779 12.4309Z" fill="#66B0D6"/>
<path d="M17.4446 11.8899C17.5604 11.89 17.6653 11.8219 17.7125 11.7163C17.7596 11.6107 17.7403 11.4871 17.663 11.401C17.4957 11.2149 17.2839 11.0745 17.0475 10.993C16.8943 10.9403 16.7276 11.0219 16.6749 11.175C16.6223 11.3281 16.7039 11.4949 16.857 11.5475C16.999 11.5963 17.126 11.6806 17.2262 11.7926C17.2819 11.8545 17.3613 11.8899 17.4446 11.8899Z" fill="#66B0D6"/>
<path d="M13.2483 15.8966H12.6513C12.4894 15.8966 12.3582 16.0278 12.3582 16.1897C12.3582 16.3515 12.4894 16.4828 12.6513 16.4828H13.2483C13.4102 16.4828 13.5414 16.3515 13.5414 16.1897C13.5414 16.0278 13.4102 15.8966 13.2483 15.8966Z" fill="#66B0D6"/>
<path d="M16.2843 13.2587H15.6869C15.525 13.2587 15.3938 13.3899 15.3938 13.5518C15.3938 13.7136 15.525 13.8449 15.6869 13.8449H16.2843C16.4461 13.8449 16.5774 13.7136 16.5774 13.5518C16.5774 13.3899 16.4461 13.2587 16.2843 13.2587Z" fill="#66B0D6"/>
<path d="M7.58086 19.4138H6.98378C6.82191 19.4138 6.69067 19.5451 6.69067 19.7069C6.69067 19.8688 6.82191 20 6.98378 20H7.58086C7.74273 20 7.87396 19.8688 7.87396 19.7069C7.87396 19.5451 7.74273 19.4138 7.58086 19.4138Z" fill="#66B0D6"/>
<path d="M16.2173 16.7963C16.1259 16.6625 15.9433 16.6282 15.8093 16.7196C15.6755 16.8111 15.6411 16.9937 15.7326 17.1277C15.8262 17.2648 15.8956 17.4169 15.9377 17.5775C15.9606 17.6824 16.039 17.7664 16.1422 17.7964C16.2452 17.8265 16.3564 17.7977 16.4322 17.7214C16.5077 17.6453 16.5356 17.5338 16.5049 17.4309C16.4462 17.2045 16.349 16.9898 16.2173 16.7963Z" fill="#66B0D6"/>
<path d="M9.81557 15.7913C9.67632 15.7219 9.55453 15.6223 9.45878 15.4997C9.35946 15.3717 9.17527 15.3487 9.04746 15.448C8.91952 15.5472 8.89647 15.7314 8.99565 15.8593C9.14578 16.052 9.33727 16.2084 9.5561 16.3169C9.7005 16.3843 9.87239 16.3239 9.94294 16.1809C10.0135 16.0381 9.95683 15.8649 9.81557 15.7913Z" fill="#66B0D6"/>
<path d="M9.37249 19.4138H8.77455C8.61268 19.4138 8.48145 19.5451 8.48145 19.7069C8.48145 19.8688 8.61268 20 8.77455 20H9.37249C9.53436 20 9.66559 19.8688 9.66559 19.7069C9.66559 19.5451 9.53436 19.4138 9.37249 19.4138Z" fill="#66B0D6"/>
<path d="M12.9559 19.4138H12.3588C12.1969 19.4138 12.0657 19.5451 12.0657 19.7069C12.0657 19.8688 12.1969 20 12.3588 20H12.9559C13.1177 20 13.249 19.8688 13.249 19.7069C13.249 19.5451 13.1177 19.4138 12.9559 19.4138Z" fill="#66B0D6"/>
<path d="M10.9092 13.8449C11.0711 13.8449 11.2023 13.7136 11.2023 13.5518C11.2023 13.3899 11.0711 13.2587 10.9092 13.2587H10.3121C10.1503 13.2587 10.019 13.3899 10.019 13.5518C10.019 13.7136 10.1503 13.8449 10.3121 13.8449H10.9092Z" fill="#66B0D6"/>
<path d="M12.7022 13.8449C12.864 13.8449 12.9953 13.7136 12.9953 13.5518C12.9953 13.3899 12.864 13.2587 12.7022 13.2587H12.1036C11.9418 13.2587 11.8105 13.3899 11.8105 13.5518C11.8105 13.7136 11.9418 13.8449 12.1036 13.8449H12.7022Z" fill="#66B0D6"/>
<path d="M11.4567 15.8966H10.8595C10.6976 15.8966 10.5664 16.0278 10.5664 16.1897C10.5664 16.3515 10.6976 16.4828 10.8595 16.4828H11.4567C11.6187 16.4828 11.7498 16.3515 11.7498 16.1897C11.7498 16.0278 11.6187 15.8966 11.4567 15.8966Z" fill="#66B0D6"/>
<path d="M11.1646 19.4138H10.5673C10.4054 19.4138 10.2742 19.5451 10.2742 19.7069C10.2742 19.8688 10.4054 20 10.5673 20H11.1646C11.3265 20 11.4577 19.8688 11.4577 19.7069C11.4577 19.5451 11.3265 19.4138 11.1646 19.4138Z" fill="#66B0D6"/>
<path d="M3.9678 19.4138H3.6747C3.51283 19.4138 3.38159 19.5451 3.38159 19.7069C3.38159 19.8688 3.51283 20 3.6747 20H3.9678C4.12967 20 4.2609 19.8688 4.2609 19.7069C4.2609 19.5451 4.12967 19.4138 3.9678 19.4138Z" fill="#66B0D6"/>
</g>
<defs>
<clipPath id="clip0">
<rect x="1" y="3" width="17" height="17" fill="white"/>
</clipPath>
</defs>
</svg>
