<svg width="9" height="9" viewBox="0 0 9 9" fill="none" xmlns="http://www.w3.org/2000/svg">
<path d="M6.43225 5.66039H6.02316L5.88165 5.51887C6.38594 4.93483 6.68953 4.17582 6.68953 3.34478C6.68953 1.49743 5.1921 0 3.34478 0C1.49745 0 0 1.49743 0 3.34478C0 5.19213 1.49743 6.68955 3.34478 6.68955C4.17582 6.68955 4.93483 6.38594 5.51887 5.88423L5.66039 6.02574V6.43225L8.23327 9L9 8.23327L6.43225 5.66039ZM3.34478 5.66039C2.06605 5.66039 1.02917 4.6235 1.02917 3.34478C1.02917 2.06605 2.06605 1.02917 3.34478 1.02917C4.6235 1.02917 5.66039 2.06605 5.66039 3.34478C5.66039 4.6235 4.6235 5.66039 3.34478 5.66039Z" fill="white"/>
</svg>