<svg width="14" height="10" viewBox="0 0 14 10" fill="none" xmlns="http://www.w3.org/2000/svg">
<path d="M6.99988 7.38282C8.583 7.38282 9.87098 6.09484 9.87098 4.51172C9.87098 2.9286 8.583 1.64062 6.99988 1.64062C5.41676 1.64062 4.12878 2.9286 4.12878 4.51172C4.12878 6.09484 5.41676 7.38282 6.99988 7.38282ZM6.99988 2.46094C8.13068 2.46094 9.05066 3.38092 9.05066 4.51172C9.05066 5.64252 8.13068 6.56251 6.99988 6.56251C5.86908 6.56251 4.9491 5.64252 4.9491 4.51172C4.9491 3.38092 5.86908 2.46094 6.99988 2.46094Z" fill="#66B0D6"/>
<path d="M6.99988 5.74219C7.67836 5.74219 8.23035 5.1902 8.23035 4.51172C8.23035 3.83324 7.67836 3.28125 6.99988 3.28125C6.3214 3.28125 5.76941 3.83324 5.76941 4.51172C5.76941 5.1902 6.3214 5.74219 6.99988 5.74219ZM6.99988 4.10156C7.22604 4.10156 7.41004 4.28556 7.41004 4.51172C7.41004 4.73788 7.22604 4.92188 6.99988 4.92188C6.77372 4.92188 6.58972 4.73788 6.58972 4.51172C6.58972 4.28556 6.77372 4.10156 6.99988 4.10156Z" fill="#66B0D6"/>
<path d="M6.99988 9.02345C9.73546 9.02345 12.4956 6.7252 13.9221 4.75205C14.0258 4.60863 14.0258 4.41484 13.9221 4.27143C12.4473 2.23144 9.6756 0 6.99988 0C4.2643 0 1.50419 2.29824 0.0776641 4.2714C-0.0260508 4.41482 -0.0260508 4.6086 0.0776641 4.75202C1.55251 6.792 4.32415 9.02345 6.99988 9.02345ZM6.99988 0.820313C9.31363 0.820313 11.6213 2.70802 13.0709 4.51159C12.3833 5.36589 9.88194 8.20313 6.99988 8.20313C4.68613 8.20313 2.37845 6.31546 0.928876 4.51186C1.61649 3.65756 4.11782 0.820313 6.99988 0.820313Z" fill="#66B0D6"/>
</svg>
