<svg width="41" height="41" viewBox="0 0 41 41" fill="none" xmlns="http://www.w3.org/2000/svg">
<circle cx="20.5" cy="20.5" r="20.5" fill="#66B0D6"/>
<g clip-path="url(#clip0)">
<path d="M25.8301 27.0608C25.7628 27.0608 25.6956 27.0493 25.6316 27.028L9.43662 21.493C9.20374 21.4126 9.04138 21.2027 9.0217 20.9575C9.00366 20.7123 9.1324 20.4794 9.3497 20.3655L27.7997 10.7305C28.0055 10.6247 28.254 10.6411 28.4409 10.7747C28.6295 10.9092 28.7271 11.1372 28.6935 11.3668L26.4385 26.5368C26.4114 26.7172 26.3057 26.8763 26.149 26.9714C26.0523 27.0304 25.9416 27.0608 25.8301 27.0608ZM11.1898 20.7919L25.3299 25.625L27.2987 12.3803L11.1898 20.7919Z" fill="white"/>
<path d="M16.8103 29.52C16.7464 29.52 16.6816 29.5101 16.6193 29.4896C16.3659 29.406 16.1953 29.1707 16.1953 28.905V23.37C16.1953 23.215 16.2544 23.0641 16.3601 22.9501L27.6351 10.8551C27.8664 10.6059 28.2575 10.5936 28.5052 10.8248C28.7536 11.056 28.7667 11.4455 28.5355 11.6948L17.4253 23.6119V27.0296L19.4778 24.2359C19.6787 23.9637 20.0641 23.903 20.338 24.1047C20.6118 24.3056 20.6701 24.691 20.4692 24.9649L17.3064 29.2699C17.1875 29.4298 17.0022 29.52 16.8103 29.52Z" fill="white"/>
</g>
<defs>
<clipPath id="clip0">
<rect x="9.02002" y="10.6599" width="19.68" height="19.68" fill="white"/>
</clipPath>
</defs>
</svg>
