<svg width="65" height="18" viewBox="0 0 65 18" fill="none" xmlns="http://www.w3.org/2000/svg">
<path d="M31.5 6.48165L34.7958 3.27146V5.08674H37.6001V6.65362H34.7958V10.9625C34.7958 11.9689 35.2166 12.4721 36.0582 12.4721C36.6878 12.4721 37.3527 12.2619 38.053 11.8415V13.4657C37.3784 13.8415 36.6428 14.0294 35.8462 14.0294C35.0431 14.0294 34.375 13.7969 33.8417 13.332C33.6747 13.1918 33.5366 13.0358 33.4274 12.8638C33.3181 12.6855 33.225 12.4562 33.1479 12.1759C33.0772 11.8893 33.0419 11.3479 33.0419 10.5517V6.65362H31.5V6.48165Z" fill="white"/>
<path d="M46.8707 9.63452H40.6357C40.6807 10.4753 40.9633 11.1441 41.4837 11.6409C42.0105 12.1377 42.6883 12.3861 43.5171 12.3861C44.6735 12.3861 45.74 12.0294 46.7165 11.316V13.0167C46.1768 13.3734 45.6404 13.6281 45.1072 13.781C44.5803 13.9339 43.9604 14.0103 43.2472 14.0103C42.2707 14.0103 41.4805 13.8097 40.8766 13.4084C40.2727 13.0071 39.7876 12.4689 39.4214 11.7938C39.0617 11.1122 38.8818 10.3256 38.8818 9.43388C38.8818 8.0963 39.264 7.01031 40.0286 6.17592C40.7931 5.33515 41.7857 4.91477 43.0063 4.91477C44.182 4.91477 45.12 5.32241 45.8203 6.1377C46.5205 6.95299 46.8707 8.04534 46.8707 9.41477V9.63452ZM40.6742 8.59311H45.1361C45.0911 7.89885 44.8823 7.36381 44.5097 6.98802C44.137 6.61222 43.6359 6.42432 43.0063 6.42432C42.3767 6.42432 41.8596 6.61222 41.4548 6.98802C41.0565 7.36381 40.7963 7.89885 40.6742 8.59311Z" fill="white"/>
<path d="M55.4282 11.8224V13.5422C54.548 13.867 53.6871 14.0294 52.8455 14.0294C51.4578 14.0294 50.3496 13.6218 49.5208 12.8065C48.6985 11.9912 48.2873 10.8988 48.2873 9.52942C48.2873 8.14725 48.6888 7.0326 49.4919 6.18547C50.295 5.33834 51.3518 4.91477 52.6624 4.91477C53.1185 4.91477 53.5265 4.95936 53.8863 5.04853C54.2525 5.13133 54.7022 5.29057 55.2354 5.52623V7.37974C54.3488 6.81923 53.5265 6.53897 52.7684 6.53897C51.9782 6.53897 51.3293 6.81604 50.8218 7.37018C50.3142 7.91795 50.0605 8.61859 50.0605 9.47209C50.0605 10.3702 50.3335 11.0836 50.8796 11.6122C51.4321 12.1409 52.1741 12.4052 53.1057 12.4052C53.7803 12.4052 54.5544 12.2109 55.4282 11.8224Z" fill="white"/>
<path d="M57.3941 0.529419H59.148V6.24279C59.8804 5.35744 60.7894 4.91477 61.8752 4.91477C62.4662 4.91477 62.9963 5.06127 63.4652 5.35426C63.9342 5.64725 64.2812 6.05171 64.506 6.56764C64.7373 7.08356 64.8529 7.85108 64.8529 8.87018V13.8766H63.099V8.44025C63.099 7.79694 62.9384 7.28101 62.6172 6.89248C62.3024 6.49757 61.8848 6.30012 61.3644 6.30012C60.9789 6.30012 60.616 6.39885 60.2755 6.5963C59.935 6.79375 59.5591 7.12178 59.148 7.58038V13.8766H57.3941V0.529419Z" fill="white"/>
<path d="M3.99269 7.92038L2.53382 7.0414C1.61883 6.48726 0.966179 5.94268 0.575868 5.40764C0.191956 4.86624 0 4.24522 0 3.54459C0 2.49363 0.364717 1.64013 1.09415 0.984077C1.82998 0.328026 2.78336 0 3.9543 0C5.07404 0 6.10101 0.312102 7.03519 0.936306V3.1051C6.06901 2.18153 5.02925 1.71975 3.9159 1.71975C3.28885 1.71975 2.77377 1.86624 2.37066 2.15924C1.96755 2.44586 1.766 2.81529 1.766 3.26752C1.766 3.66879 1.91316 4.04459 2.2075 4.3949C2.50183 4.74522 2.97852 5.11147 3.63757 5.49363L5.10603 6.3535C6.74406 7.32166 7.56307 8.55733 7.56307 10.0605C7.56307 11.1306 7.20155 12 6.47852 12.6688C5.76188 13.3376 4.8277 13.672 3.67596 13.672C2.35146 13.672 1.14534 13.2675 0.0575868 12.4586V10.0318C1.09415 11.3376 2.29388 11.9904 3.65676 11.9904C4.25823 11.9904 4.75731 11.8248 5.15402 11.4936C5.55713 11.1561 5.75868 10.7357 5.75868 10.2325C5.75868 9.4172 5.17002 8.6465 3.99269 7.92038Z" fill="#1F96FF"/>
<path d="M9.39625 0.171975H11.1431V5.88535C11.8725 5 12.7779 4.55732 13.8592 4.55732C14.4479 4.55732 14.9758 4.70382 15.4429 4.99682C15.91 5.28981 16.2555 5.69427 16.4794 6.21019C16.7098 6.72612 16.825 7.49363 16.825 8.51274V13.5191H15.0782V8.0828C15.0782 7.43949 14.9182 6.92357 14.5983 6.53503C14.2847 6.14013 13.8688 5.94268 13.3505 5.94268C12.9666 5.94268 12.6051 6.0414 12.266 6.23885C11.9269 6.43631 11.5526 6.76433 11.1431 7.22293V13.5191H9.39625V0.171975Z" fill="#1F96FF"/>
<path d="M20.165 1.03185C20.4529 1.03185 20.6993 1.13057 20.904 1.32803C21.1088 1.52548 21.2112 1.76752 21.2112 2.05414C21.2112 2.3344 21.1088 2.57643 20.904 2.78026C20.6993 2.98408 20.4529 3.08599 20.165 3.08599C19.8963 3.08599 19.6595 2.98408 19.4548 2.78026C19.25 2.57006 19.1476 2.32803 19.1476 2.05414C19.1476 1.78662 19.25 1.55096 19.4548 1.34713C19.6595 1.13694 19.8963 1.03185 20.165 1.03185ZM19.3012 4.7293H21.048V13.5191H19.3012V4.7293Z" fill="#1F96FF"/>
<path d="M23.4666 18V4.7293H26.5283C28.096 4.7293 29.3149 5.11784 30.1851 5.89491C31.0617 6.67198 31.5 7.75796 31.5 9.15287C31.5 10.4713 31.0873 11.5541 30.2619 12.4013C29.4429 13.2484 28.3967 13.672 27.1234 13.672C26.5603 13.672 25.9365 13.5478 25.2518 13.2994V18H23.4666ZM26.4899 6.3535H25.2518V11.7611C25.7893 12.035 26.3524 12.172 26.941 12.172C27.7601 12.172 28.4287 11.8885 28.947 11.3217C29.4717 10.7548 29.734 10.0255 29.734 9.13376C29.734 8.56051 29.6092 8.05414 29.3597 7.61465C29.1165 7.17516 28.7806 6.85669 28.3519 6.65924C27.9296 6.45541 27.309 6.3535 26.4899 6.3535Z" fill="#1F96FF"/>
</svg>
