<svg width="24" height="20" viewBox="0 0 24 20" fill="none" xmlns="http://www.w3.org/2000/svg">
<path d="M11.9228 16.5675C12.5316 16.5675 13.0252 16.0848 13.0252 15.4893C13.0252 14.8938 12.5316 14.4111 11.9228 14.4111C11.3139 14.4111 10.8203 14.8938 10.8203 15.4893C10.8203 16.0848 11.3139 16.5675 11.9228 16.5675Z" fill="#F2994A"/>
<path d="M11.775 12.6915C12.1101 12.6915 12.3821 12.4255 12.3821 12.0978V6.45737C12.3821 6.12964 12.1101 5.86365 11.775 5.86365C11.4399 5.86365 11.168 6.12964 11.168 6.45737V12.0978C11.168 12.4255 11.4399 12.6915 11.775 12.6915Z" fill="#F2994A"/>
<path d="M14.1357 1.76545L14.1081 1.72359C13.5459 0.876341 12.965 -6.22845e-08 11.9229 -6.22845e-08C10.8369 -6.22845e-08 10.2687 0.88881 9.71925 1.74882C9.71652 1.75298 9.69952 1.7797 9.69679 1.78415L0.0843832 17.7141C0.0291395 17.8056 0 17.8534 0 17.9594C0 19.1159 0.951588 20 2.12112 20H21.725C22.8949 20 23.8462 19.1156 23.8462 17.9594C23.8462 17.8534 23.817 17.7771 23.7621 17.6859L14.1357 1.76545ZM21.725 18.8125H2.12112C1.67765 18.8125 1.29641 18.5302 1.22568 18.1019L10.7488 2.34997C11.2205 1.61167 11.5295 1.1735 11.9229 1.1735C12.3057 1.1735 12.6687 1.72864 13.0894 2.36274L22.6202 18.0986C22.5497 18.5267 22.1685 18.8125 21.725 18.8125Z" fill="#F2994A"/>
</svg>
