<svg width="19" height="19" viewBox="0 0 19 19" fill="none" xmlns="http://www.w3.org/2000/svg">
<g clip-path="url(#clip0)">
<path d="M0.825839 16.7141L0.825859 16.7141L0.823365 16.7099C0.403589 16.0074 0.393559 15.1618 0.787147 14.4476C0.78726 14.4473 0.787374 14.4471 0.787488 14.4469L7.49773 2.3492C7.49796 2.3488 7.49819 2.3484 7.49842 2.34799C7.91281 1.61227 8.66068 1.16797 9.5 1.16797C10.3393 1.16797 11.0872 1.61225 11.5016 2.34794C11.5018 2.34836 11.502 2.34878 11.5023 2.3492L18.2125 14.4469C18.2126 14.4471 18.2127 14.4473 18.2128 14.4475C18.6064 15.1618 18.5964 16.0073 18.1766 16.7099L18.1742 16.7141C17.7637 17.4165 17.0271 17.8358 16.2123 17.8358H2.7877C1.97293 17.8358 1.23632 17.4165 0.825839 16.7141Z" stroke="#EB5757"/>
<rect x="8.35986" y="4.56006" width="2.28" height="7.6" fill="#EB5757"/>
<ellipse cx="9.49998" cy="15.2001" rx="1.52" ry="1.52" fill="#EB5757"/>
</g>
<defs>
<clipPath id="clip0">
<rect width="19" height="19" fill="white"/>
</clipPath>
</defs>
</svg>
