<svg width="20" height="20" viewBox="0 0 20 20" fill="none" xmlns="http://www.w3.org/2000/svg">
<circle cx="10" cy="10" r="10" fill="#364150"/>
<path d="M10.032 6.73684C11.8219 6.73684 13.2283 8.24211 13.2283 10.1579C13.2283 10.5684 13.1644 11.0474 12.9726 11.3895L14.8265 13.3737C15.7854 12.4842 16.5525 11.3895 17 10.1579C15.9132 7.14734 13.1644 5.02629 9.96804 5.02629C9.07306 5.02629 8.24201 5.23155 7.41096 5.50524L8.81735 7.0105C9.20091 6.80526 9.6484 6.73684 10.032 6.73684ZM3.63927 4.88947L5.10959 6.46316L5.3653 6.73684C4.27854 7.62632 3.44749 8.78947 3 10.1579C4.08676 13.1684 6.83562 15.2895 10.032 15.2895C10.9909 15.2895 11.9498 15.0842 12.8447 14.7421L13.1005 15.0158L14.9543 17L15.7854 16.1105L4.47032 4L3.63927 4.88947ZM7.15525 8.65263L8.11416 9.67895C8.11416 9.88421 8.11416 10.0211 8.11416 10.1579C8.11416 11.3211 8.94521 12.2105 10.032 12.2105C10.1598 12.2105 10.2877 12.2105 10.4795 12.1421L11.4384 13.1684C10.9909 13.4421 10.5434 13.5789 10.032 13.5789C8.24201 13.5789 6.83562 12.0737 6.83562 10.1579C6.83562 9.61053 6.96347 9.13158 7.15525 8.65263ZM9.90411 8.10526L11.8858 10.2263C11.8858 10.1579 11.8858 10.1579 11.8858 10.0895C11.8858 8.92632 11.0548 8.03684 9.96804 8.03684C9.96804 8.10526 9.96804 8.10526 9.90411 8.10526Z" fill="white"/>
</svg>
