<svg width="13" height="13" viewBox="0 0 13 13" fill="none" xmlns="http://www.w3.org/2000/svg">
<path d="M9.74996 5.8501H8.44995V7.15011H9.74996V5.8501Z" fill="#364150"/>
<path d="M7.14998 5.8501H5.84998V7.15011H7.14998V5.8501Z" fill="#364150"/>
<path d="M4.55002 5.8501H3.25V7.15011H4.55002V5.8501Z" fill="#364150"/>
<path d="M11.05 1.30001H10.4V0H9.09998V1.30001H3.89997V0H2.59996V1.30001H1.94997C1.22847 1.30001 0.656484 1.88501 0.656484 2.60002L0.649963 11.7C0.649963 12.415 1.22847 13 1.94997 13H11.05C11.765 13 12.35 12.415 12.35 11.7V2.59999C12.35 1.88501 11.765 1.30001 11.05 1.30001ZM11.05 11.7H1.94997V4.54999H11.05V11.7Z" fill="#364150"/>
</svg>
