<svg width="14" height="17" viewBox="0 0 14 17" fill="none" xmlns="http://www.w3.org/2000/svg">
<path d="M8.96579 5.96716C8.75275 5.96716 8.58008 6.13983 8.58008 6.35288V13.6429C8.58008 13.8558 8.75275 14.0286 8.96579 14.0286C9.17884 14.0286 9.35151 13.8558 9.35151 13.6429V6.35288C9.35151 6.13983 9.17884 5.96716 8.96579 5.96716Z" fill="#EB5757"/>
<path d="M4.4111 5.96716C4.19806 5.96716 4.02539 6.13983 4.02539 6.35288V13.6429C4.02539 13.8558 4.19806 14.0286 4.4111 14.0286C4.62415 14.0286 4.79682 13.8558 4.79682 13.6429V6.35288C4.79682 6.13983 4.62415 5.96716 4.4111 5.96716Z" fill="#EB5757"/>
<path d="M1.09549 4.90328V14.4064C1.09549 14.9681 1.30145 15.4956 1.66125 15.8741C2.01939 16.2536 2.51781 16.4691 3.03942 16.47H10.3372C10.859 16.4691 11.3574 16.2536 11.7154 15.8741C12.0752 15.4956 12.2812 14.9681 12.2812 14.4064V4.90328C12.9964 4.71343 13.4599 4.02247 13.3642 3.28856C13.2684 2.5548 12.6432 2.00591 11.9031 2.00576H9.92832V1.52362C9.93058 1.11817 9.77027 0.728837 9.48324 0.442415C9.19622 0.156144 8.80629 -0.00326404 8.40084 5.06795e-05H4.97582C4.57037 -0.00326404 4.18044 0.156144 3.89342 0.442415C3.60639 0.728837 3.44608 1.11817 3.44834 1.52362V2.00576H1.47352C0.73343 2.00591 0.108304 2.5548 0.012478 3.28856C-0.0831969 4.02247 0.380262 4.71343 1.09549 4.90328ZM10.3372 15.6986H3.03942C2.37994 15.6986 1.86691 15.1321 1.86691 14.4064V4.93718H11.5097V14.4064C11.5097 15.1321 10.9967 15.6986 10.3372 15.6986ZM4.21977 1.52362C4.2172 1.32278 4.29615 1.12947 4.43869 0.987687C4.58107 0.845907 4.77483 0.768011 4.97582 0.771477H8.40084C8.60183 0.768011 8.79559 0.845907 8.93797 0.987687C9.0805 1.12932 9.15945 1.32278 9.15689 1.52362V2.00576H4.21977V1.52362ZM1.47352 2.77718H11.9031C12.2866 2.77718 12.5974 3.08802 12.5974 3.47147C12.5974 3.85492 12.2866 4.16575 11.9031 4.16575H1.47352C1.09006 4.16575 0.779234 3.85492 0.779234 3.47147C0.779234 3.08802 1.09006 2.77718 1.47352 2.77718Z" fill="#EB5757"/>
<path d="M6.6865 5.96716C6.47345 5.96716 6.30078 6.13983 6.30078 6.35288V13.6429C6.30078 13.8558 6.47345 14.0286 6.6865 14.0286C6.89954 14.0286 7.07221 13.8558 7.07221 13.6429V6.35288C7.07221 6.13983 6.89954 5.96716 6.6865 5.96716Z" fill="#EB5757"/>
</svg>
