<svg width="19" height="18" viewBox="0 0 19 18" fill="none" xmlns="http://www.w3.org/2000/svg">
<path d="M14.1109 5.34373H9.04834C8.85417 5.34373 8.69678 5.50113 8.69678 5.6953C8.69678 5.88946 8.85417 6.04686 9.04834 6.04686H14.1109C14.3051 6.04686 14.4625 5.88946 14.4625 5.6953C14.4625 5.50113 14.3051 5.34373 14.1109 5.34373Z" fill="#66B0D6"/>
<path d="M12.8806 7.1343C12.8152 7.06891 12.7245 7.0313 12.6321 7.0313C12.5396 7.0313 12.4489 7.06891 12.3835 7.1343C12.3181 7.19969 12.2805 7.2904 12.2805 7.38286C12.2805 7.47532 12.3181 7.56602 12.3835 7.63141C12.4489 7.6968 12.5396 7.73442 12.6321 7.73442C12.7245 7.73442 12.8152 7.6968 12.8806 7.63141C12.946 7.56602 12.9836 7.47532 12.9836 7.38286C12.9836 7.2904 12.946 7.19969 12.8806 7.1343Z" fill="#66B0D6"/>
<path d="M9.29665 1.61479C9.23126 1.5494 9.14056 1.51178 9.04809 1.51178C8.95563 1.51178 8.86493 1.5494 8.79954 1.61479C8.73415 1.68018 8.69653 1.77088 8.69653 1.86334C8.69653 1.9558 8.73415 2.04651 8.79954 2.1119C8.86493 2.17729 8.95563 2.2149 9.04809 2.2149C9.14056 2.2149 9.23126 2.17729 9.29665 2.1119C9.36204 2.04651 9.39966 1.9558 9.39966 1.86334C9.39966 1.77088 9.36204 1.68018 9.29665 1.61479Z" fill="#66B0D6"/>
<path d="M11.1534 7.03123H9.04834C8.85417 7.03123 8.69678 7.18863 8.69678 7.3828C8.69678 7.57696 8.85417 7.73436 9.04834 7.73436H11.1534C11.3476 7.73436 11.5049 7.57696 11.5049 7.3828C11.5049 7.18863 11.3476 7.03123 11.1534 7.03123Z" fill="#66B0D6"/>
<path d="M14.1109 9.14061H9.04834C8.85417 9.14061 8.69678 9.298 8.69678 9.49217C8.69678 9.68634 8.85417 9.84373 9.04834 9.84373H14.1109C14.3051 9.84373 14.4625 9.68634 14.4625 9.49217C14.4625 9.298 14.3051 9.14061 14.1109 9.14061Z" fill="#66B0D6"/>
<path d="M12.8806 10.9312C12.8152 10.8658 12.7245 10.8282 12.6321 10.8282C12.5396 10.8282 12.4489 10.8658 12.3835 10.9312C12.3181 10.9966 12.2805 11.0873 12.2805 11.1797C12.2805 11.2722 12.3181 11.3629 12.3835 11.4283C12.4489 11.4937 12.5396 11.5313 12.6321 11.5313C12.7245 11.5313 12.8152 11.4937 12.8806 11.4283C12.946 11.3629 12.9836 11.2722 12.9836 11.1797C12.9836 11.0873 12.946 10.9966 12.8806 10.9312Z" fill="#66B0D6"/>
<path d="M11.1534 10.8281H9.04834C8.85417 10.8281 8.69678 10.9855 8.69678 11.1797C8.69678 11.3738 8.85417 11.5312 9.04834 11.5312H11.1534C11.3476 11.5312 11.5049 11.3738 11.5049 11.1797C11.5049 10.9855 11.3476 10.8281 11.1534 10.8281Z" fill="#66B0D6"/>
<path d="M14.1109 12.9375H9.04834C8.85417 12.9375 8.69678 13.0949 8.69678 13.289C8.69678 13.4832 8.85417 13.6406 9.04834 13.6406H14.1109C14.3051 13.6406 14.4625 13.4832 14.4625 13.289C14.4625 13.0949 14.3051 12.9375 14.1109 12.9375Z" fill="#66B0D6"/>
<path d="M12.8806 14.728C12.8152 14.6626 12.7245 14.625 12.6321 14.625C12.5396 14.625 12.4489 14.6626 12.3835 14.728C12.3181 14.7934 12.2805 14.8841 12.2805 14.9766C12.2805 15.0691 12.3181 15.1598 12.3835 15.2251C12.4489 15.2905 12.5396 15.3282 12.6321 15.3282C12.7245 15.3282 12.8152 15.2905 12.8806 15.2251C12.946 15.1598 12.9836 15.0691 12.9836 14.9766C12.9836 14.8841 12.946 14.7934 12.8806 14.728Z" fill="#66B0D6"/>
<path d="M11.1534 14.625H9.04834C8.85417 14.625 8.69678 14.7824 8.69678 14.9765C8.69678 15.1707 8.85417 15.3281 9.04834 15.3281H11.1534C11.3476 15.3281 11.5049 15.1707 11.5049 14.9765C11.5049 14.7824 11.3476 14.625 11.1534 14.625Z" fill="#66B0D6"/>
<path d="M14.7873 1.37113H12.1021C11.7139 1.00125 11.1892 0.773436 10.612 0.773436H10.304C10.0686 0.307335 9.58488 0 9.04829 0C8.5117 0 8.02802 0.307335 7.79255 0.773436H7.48384C6.90661 0.773436 6.38194 1.00125 5.99378 1.37113H3.30936C2.36419 1.37113 1.59521 2.1401 1.59521 3.08527V16.2859C1.59521 17.231 2.36419 18 3.30936 18H14.7873C15.7324 18 16.5014 17.231 16.5014 16.2859V3.08527C16.5014 2.1401 15.7325 1.37113 14.7873 1.37113ZM7.48388 1.47656H8.03182C8.18995 1.47656 8.32861 1.37099 8.37069 1.21858C8.45454 0.91508 8.73319 0.703124 9.04833 0.703124C9.36347 0.703124 9.64211 0.91508 9.72593 1.21858C9.76801 1.37099 9.9067 1.47656 10.0648 1.47656H10.612C11.3751 1.47656 12.0032 2.06543 12.0659 2.81253H6.03003C6.09271 2.06543 6.72085 1.47656 7.48388 1.47656ZM15.7983 16.2859C15.7983 16.8434 15.3448 17.2969 14.7873 17.2969H3.30936C2.75189 17.2969 2.29834 16.8434 2.29834 16.2859V3.08527C2.29834 2.5278 2.75189 2.07425 3.30936 2.07425H5.50124C5.38607 2.33834 5.32177 2.62951 5.32177 2.93558V3.16409C5.32177 3.35826 5.47916 3.51565 5.67333 3.51565H12.4226C12.6167 3.51565 12.7741 3.35826 12.7741 3.16409V2.93558C12.7741 2.62954 12.7098 2.33834 12.5947 2.07425H14.7873C15.3448 2.07425 15.7983 2.5278 15.7983 3.08527V16.2859Z" fill="#66B0D6"/>
<path d="M6.81284 5.25923C6.67556 5.12195 6.45295 5.12195 6.31566 5.2592L4.81231 6.76259L4.3492 6.29944C4.21192 6.16219 3.98931 6.16219 3.85199 6.29944C3.7147 6.43672 3.7147 6.65933 3.85199 6.79665L4.56372 7.50839C4.63238 7.57705 4.72235 7.61137 4.81231 7.61137C4.90228 7.61137 4.99228 7.57705 5.0609 7.50839L6.81284 5.75645C6.95013 5.61916 6.95013 5.39655 6.81284 5.25923Z" fill="#66B0D6"/>
<path d="M5.95459 12.9375H4.26709C4.07292 12.9375 3.91553 13.0949 3.91553 13.289V14.9765C3.91553 15.1707 4.07292 15.3281 4.26709 15.3281H5.95459C6.14876 15.3281 6.30616 15.1707 6.30616 14.9765V13.289C6.30616 13.0949 6.14876 12.9375 5.95459 12.9375ZM5.60303 14.625H4.61865V13.6406H5.60303V14.625Z" fill="#66B0D6"/>
<path d="M5.95459 9.14061H4.26709C4.07292 9.14061 3.91553 9.298 3.91553 9.49217V11.1797C3.91553 11.3738 4.07292 11.5312 4.26709 11.5312H5.95459C6.14876 11.5312 6.30616 11.3738 6.30616 11.1797V9.49217C6.30616 9.298 6.14876 9.14061 5.95459 9.14061ZM5.60303 10.8281H4.61865V9.84373H5.60303V10.8281Z" fill="#66B0D6"/>
</svg>
