<svg width="20" height="20" viewBox="0 0 20 20" fill="none" xmlns="http://www.w3.org/2000/svg">
<circle cx="10" cy="10" r="10" fill="#364150"/>
<path d="M14.9993 8.95556H11.2327L12.7549 7.38889C11.2382 5.88889 8.78266 5.83333 7.26599 7.33333C5.74932 8.83889 5.74932 11.2667 7.26599 12.7722C8.78266 14.2778 11.2382 14.2778 12.7549 12.7722C13.5104 12.0278 13.8882 11.1556 13.8882 10.0556H14.9993C14.9993 11.1556 14.5104 12.5833 13.5327 13.55C11.5827 15.4833 8.41599 15.4833 6.46599 13.55C4.52155 11.6222 4.50488 8.48889 6.45488 6.56111C8.40488 4.63333 11.5327 4.63333 13.4827 6.56111L14.9993 5V8.95556Z" fill="#EBECED"/>
</svg>
