<svg width="20" height="20" viewBox="0 0 20 20" fill="none" xmlns="http://www.w3.org/2000/svg">
<circle cx="10" cy="10" r="10" fill="#364150"/>
<path d="M13.6117 11V13.2843H6.38832V11H5V13.9558C5 14.3264 5.31036 14.627 5.6952 14.627H14.3048C14.6893 14.627 15 14.3268 15 13.9558V11H13.6117Z" fill="#EBECED"/>
<path d="M9.8736 11.1465L7.88595 8.82314C7.88595 8.82314 7.58352 8.54693 7.91146 8.54693C8.23941 8.54693 9.0315 8.54693 9.0315 8.54693C9.0315 8.54693 9.0315 8.36113 9.0315 8.07459C9.0315 7.25766 9.0315 5.7709 9.0315 5.16479C9.0315 5.16479 8.98702 5 9.24358 5C9.50221 5 10.635 5 10.8202 5C11.005 5 11.0009 5.13877 11.0009 5.13877C11.0009 5.72653 11.0009 7.26466 11.0009 8.05491C11.0009 8.31109 11.0009 8.47722 11.0009 8.47722C11.0009 8.47722 11.6361 8.47722 12.0347 8.47722C12.4327 8.47722 12.133 8.76643 12.133 8.76643C12.133 8.76643 10.4419 10.938 10.206 11.1659C10.0364 11.331 9.8736 11.1465 9.8736 11.1465Z" fill="#EBECED"/>
</svg>
