<svg width="22" height="20" viewBox="0 0 22 20" fill="none" xmlns="http://www.w3.org/2000/svg">
<rect width="22" height="20" rx="50" ry="50" fill="#2F3845"/>
<g clip-path="url(#clip0)">
<path d="M15.8721 6.68222L15.6071 5.888C15.5062 5.58551 15.2242 5.38226 14.9054 5.38226H12.6785V4.65726C12.6785 4.29489 12.3839 4 12.0217 4H9.9824C9.62022 4 9.32551 4.29489 9.32551 4.65726V5.38226H7.09877C6.77989 5.38226 6.49782 5.58551 6.39692 5.888L6.13197 6.68222C6.07164 6.86304 6.10222 7.06326 6.21364 7.2179C6.32506 7.37253 6.50532 7.4649 6.69594 7.4649H6.97288L7.58244 15.0025C7.62776 15.5618 8.10237 16 8.66313 16H13.4646C14.0253 16 14.5 15.5618 14.5452 15.0024L15.1548 7.4649H15.3081C15.4987 7.4649 15.679 7.37253 15.7904 7.21799C15.9018 7.06335 15.9324 6.86304 15.8721 6.68222ZM10.0286 4.70312H11.9754V5.38226H10.0286V4.70312ZM13.8444 14.9458C13.8284 15.1427 13.6616 15.2969 13.4646 15.2969H8.66313C8.46611 15.2969 8.2993 15.1427 8.28337 14.9458L7.6783 7.4649H14.4494L13.8444 14.9458ZM6.84672 6.76178L7.06398 6.11047C7.06892 6.09546 7.08293 6.08539 7.09877 6.08539H14.9054C14.9212 6.08539 14.9351 6.09546 14.9402 6.11047L15.1574 6.76178H6.84672Z" fill="#FF7362"/>
<path d="M12.7229 14.9209C12.7292 14.9212 12.7353 14.9213 12.7415 14.9213C12.9273 14.9213 13.0825 14.7758 13.0923 14.5881L13.4224 8.25061C13.4325 8.05671 13.2834 7.89127 13.0896 7.8812C12.8952 7.87085 12.7303 8.02008 12.7202 8.21399L12.3901 14.5515C12.3801 14.7454 12.529 14.9108 12.7229 14.9209Z" fill="#FF7362"/>
<path d="M8.92728 14.5889C8.93754 14.7763 9.09263 14.9213 9.27802 14.9213C9.28443 14.9213 9.29102 14.9211 9.29752 14.9208C9.49134 14.9102 9.63993 14.7445 9.6294 14.5506L9.28361 8.21317C9.27308 8.01926 9.10737 7.87067 8.91346 7.88129C8.71964 7.89182 8.57105 8.05753 8.58158 8.25144L8.92728 14.5889Z" fill="#FF7362"/>
<path d="M11.0059 14.9213C11.2 14.9213 11.3574 14.764 11.3574 14.5698V8.23231C11.3574 8.03812 11.2 7.88074 11.0059 7.88074C10.8117 7.88074 10.6543 8.03812 10.6543 8.23231V14.5698C10.6543 14.764 10.8117 14.9213 11.0059 14.9213Z" fill="#FF7362"/>
</g>
<defs>
<clipPath id="clip0">
<rect x="5" y="4" width="12" height="12" fill="white"/>
</clipPath>
</defs>
</svg>
